<svg width="1280" height="720" viewBox="0 0 1280 720" fill="none" xmlns="http://www.w3.org/2000/svg">
<rect width="1280" height="720" fill="url(#paint0_linear_1_11)"/>
<path d="M20 25C20 22.2386 22.2386 20 25 20H1255C1257.76 20 1260 22.2386 1260 25V70.5V196.5V363.5V525.5V653V695C1260 697.761 1257.76 700 1255 700H25C22.2386 700 20 697.761 20 695V25Z" fill="#E5EEEE"/>
<mask id="mask0_1_11" style="mask-type:alpha" maskUnits="userSpaceOnUse" x="40" y="43" width="80" height="40">
<path d="M54.2684 48.6029V54.1944H55.8538H57.4391V48.6029V43.0114H55.8538H54.2684V48.6029Z" fill="#17282F"/>
<path d="M61.8295 48.6029V54.1944H64.9999L65.0244 51.8785L65.0609 49.5629L68.7077 57.7299C70.7193 62.214 73.0736 67.4777 73.9387 69.4088L75.5249 72.9443H77.2191C78.793 72.9443 78.9267 72.9332 78.8654 72.7412C78.8289 72.6392 75.9146 66.0889 72.3779 58.2042C68.8414 50.3081 65.8658 43.6672 65.768 43.43L65.5852 43.0114H61.8295V48.6029Z" fill="#17282F"/>
<path d="M82.316 48.6029V54.1944H85.4867L85.5109 51.8558L85.5477 49.5174L90.7912 61.2313L96.0231 72.9443H97.7053C98.6326 72.9443 99.3884 72.8991 99.3884 72.8434C99.3884 72.7878 96.4021 66.0661 92.7564 57.9111L86.1098 43.0682L84.2196 43.0341L82.316 43V48.6029Z" fill="#17282F"/>
<path d="M102.561 48.6029V54.1944H105.731V45.9373L109.427 45.9706L112.091 45.995C112.77 46.0016 113.439 46.1478 114.049 46.423C117.768 48.1399 117.707 52.9066 113.926 54.5665L113.109 54.9289L102.659 54.9857L92.2073 55.0425L92.8417 56.4552L93.4857 57.8668H113.351L114.437 57.5387C116.913 56.7829 118.706 55.122 119.583 52.7834C119.888 51.9822 119.925 51.7226 119.925 50.4686C119.913 49.2473 119.876 48.9323 119.596 48.1416C118.939 46.2756 117.426 44.6723 115.561 43.8021C113.914 43.0568 113.549 43.0114 107.719 43.0114H102.561V48.6029Z" fill="#17282F"/>
<path d="M54.2684 56.4532V57.9216H68.0487L67.8172 57.3791C67.6835 57.0854 67.403 56.4418 67.1714 55.9448L66.7563 55.0425L60.514 55.0075L54.2684 54.9857V56.4532Z" fill="#17282F"/>
<path d="M71.7318 55.0865C71.7563 55.1433 72.0491 55.798 72.3785 56.5546L72.9875 57.9219H80.7687C85.3171 57.9219 88.5364 57.8764 88.5119 57.8199C88.4997 57.7631 88.2053 57.1098 87.8661 56.3515L87.2562 54.9857H79.475C74.9266 54.9857 71.7072 55.0311 71.7318 55.0879" fill="#17282F"/>
<path d="M54.2443 62.5866L54.2167 65.614C54.2106 66.2453 54.049 66.867 53.7444 67.4317C53.2201 68.4258 52.4397 69.1486 51.3665 69.6343C50.6955 69.9393 50.6097 69.9507 48.7196 69.9507H47.6791C47.0802 69.9508 46.4892 69.8231 45.9521 69.5775C44.9148 69.1032 43.9152 68.1318 43.5242 67.2173C43.3402 66.7535 43.2326 66.2337 43.1958 65.4564L43.147 64.3603H40V65.343C40.0123 67.5567 40.7568 69.2625 42.3666 70.7425C44.1344 72.3799 45.7685 72.9451 48.7196 72.9451C51.6225 72.9451 53.2934 72.3799 55.0124 70.7985C56.0243 69.8726 56.6465 68.9467 57.0862 67.6927C57.3545 66.9361 57.3667 66.71 57.4146 62.7448L57.4636 58.5998H54.281L54.2443 62.5866Z" fill="#17282F"/>
<path d="M61.8295 65.7719V72.9451H63.4145H64.9999V65.7719V58.5998H63.4145H61.8295V65.7719Z" fill="#17282F"/>
<path d="M82.317 65.7719V72.9451H83.9023H85.4873V65.7719V58.5998H83.9023H82.317V65.7719Z" fill="#17282F"/>
<path d="M102.561 65.7719V72.9451H104.146H105.731V65.7719V58.5998H104.146H102.561V65.7719Z" fill="#17282F"/>
<path d="M110.024 58.8026C110.049 58.9162 111.463 62.1464 113.17 65.975L116.28 72.9448H117.963C119.536 72.9448 119.646 72.9335 119.61 72.7418C119.585 72.6282 118.17 69.398 116.463 65.5685L113.354 58.5995H111.67C110.11 58.5995 109.987 58.6109 110.024 58.8026Z" fill="#17282F"/>
<path d="M63.1097 78.2083C62.1591 78.6599 61.7072 79.3941 61.7072 80.5128C61.7072 81.6773 62.195 82.4325 63.1956 82.8285C64.0974 83.1667 65.2807 82.9182 65.8416 82.2635L65.9976 82.0707L65.959 81.8611L65.7683 81.7438C65.4386 81.5407 65.4264 81.5407 65.1225 81.8119C64.4267 82.4212 63.6586 82.4101 62.976 81.7438C62.6844 81.4501 62.6231 81.3036 62.5866 80.6477C62.5375 79.7332 62.7936 79.2137 63.4525 78.897C63.9892 78.6372 64.4767 78.7167 65.0133 79.1228C65.3427 79.3827 65.4162 79.3941 65.6846 79.2702C66.0495 79.0785 66.0495 78.9198 65.6956 78.6144C65.0498 78.0507 63.83 77.8578 63.1106 78.2083" fill="#17282F"/>
<path d="M68.7811 78.2086C67.8415 78.5809 67.403 79.2924 67.3908 80.4563C67.3785 81.8679 68.1221 82.7938 69.4146 82.9526C70.9395 83.1443 72.0737 82.1051 72.0737 80.5131C72.0737 78.6602 70.463 77.5309 68.7811 78.2086ZM70.3173 78.886C70.915 79.1572 71.2201 79.677 71.2201 80.4563C71.2201 81.564 70.6835 82.2297 69.7562 82.2525C68.7933 82.2752 68.073 81.3368 68.2199 80.2419C68.3046 79.5634 68.5729 79.1799 69.1585 78.9087C69.6706 78.6602 69.793 78.6602 70.3173 78.886Z" fill="#17282F"/>
<path d="M80.9147 78.1745C80.122 78.5136 79.805 79.2705 80.1711 79.9252C80.4026 80.3541 80.8902 80.6026 81.8775 80.8173C82.2805 80.8966 82.7055 81.0553 82.8281 81.1564C83.1348 81.4049 83.1087 81.8338 82.7791 82.0267C82.1336 82.3874 81.4501 82.3309 80.9012 81.8563C80.6084 81.5964 79.9985 81.6643 79.9985 81.9469C79.9985 82.1741 80.5474 82.647 81.0358 82.8387C82.6334 83.449 84.4377 82.2181 83.7431 80.9755C83.5227 80.558 83.0719 80.3095 82.1937 80.1056C80.8889 79.8116 80.5474 79.4506 81.1082 78.9763C81.4624 78.6826 82.206 78.7053 82.6699 79.0217C83.0228 79.2589 83.0596 79.2703 83.3525 79.0888C83.5227 78.9877 83.6591 78.8615 83.6591 78.8047C83.6591 78.7479 83.4396 78.5676 83.159 78.3986C82.5614 78.0376 81.5004 77.9356 80.915 78.1714" fill="#17282F"/>
<path d="M73.9025 80.5126V82.8853H74.3291H74.7442L74.7807 81.1675L74.8175 79.462L75.9631 81.1675L77.1097 82.8853H77.6463H78.1706V80.5126V78.1401H77.7441H77.3166V79.9136V81.6983L76.1345 79.9136L74.939 78.1401H74.4269H73.9025V80.5126Z" fill="#17282F"/>
<path d="M85.4879 79.8576C85.4879 81.439 85.5124 81.631 85.7685 82.0372C86.0733 82.5456 86.8905 82.998 87.5004 82.998C88.0615 82.9867 88.8297 82.6135 89.1581 82.1959C89.4386 81.8341 89.4509 81.6989 89.4877 79.9709L89.5242 78.1407H88.6582V81.0414C88.6584 81.3553 88.5326 81.6581 88.3053 81.8909C88.037 82.1732 87.8656 82.2516 87.5004 82.2516C87.1352 82.2516 86.9638 82.1732 86.6958 81.8909C86.4676 81.6585 86.3413 81.3555 86.3416 81.0414V78.1407H85.4879V79.8576Z" fill="#17282F"/>
<path d="M91.4633 80.5126V82.8853H92.9873H94.5122V82.5459V82.2067H93.3534H92.1946V80.1734V78.1401H91.8294H91.4633V80.5126Z" fill="#17282F"/>
<path d="M94.756 78.4795V78.8187H95.5487H96.3411V80.852V82.8844H96.7685H97.195V80.852V78.8187H97.9877H98.7801V78.4795V78.1401H96.7685H94.756V78.4795Z" fill="#17282F"/>
<path d="M40 81.0775C40 81.1567 42.9879 81.1911 48.7196 81.1911C54.4512 81.1911 57.4391 81.157 57.4391 81.0775C57.4391 80.9979 54.4515 80.9639 48.7196 80.9639C42.9876 80.9639 40 80.9979 40 81.0775Z" fill="#17282F"/>
<path d="M102.561 81.0775C102.561 81.1567 105.548 81.1911 111.28 81.1911C117.012 81.1911 120 81.157 120 81.0775C120 80.9979 117.012 80.9639 111.28 80.9639C105.549 80.9639 102.561 80.9979 102.561 81.0775Z" fill="#17282F"/>
</mask>
<g mask="url(#mask0_1_11)">
<rect x="40" y="43" width="80" height="40.0003" fill="#17282F"/>
</g>
<rect x="40" y="88" width="1200" height="592" rx="5" fill="#F3F3F3"/>
<path d="M152.784 65H149.959V56.2727H152.874C153.729 56.2727 154.463 56.4474 155.077 56.7969C155.69 57.1435 156.161 57.642 156.487 58.2926C156.817 58.9403 156.982 59.7173 156.982 60.6236C156.982 61.5327 156.815 62.3139 156.483 62.9673C156.153 63.6207 155.676 64.1236 155.051 64.4759C154.426 64.8253 153.67 65 152.784 65ZM151.276 63.8494H152.712C153.376 63.8494 153.929 63.7244 154.369 63.4744C154.81 63.2216 155.139 62.8565 155.358 62.3793C155.577 61.8991 155.686 61.3139 155.686 60.6236C155.686 59.9389 155.577 59.358 155.358 58.8807C155.142 58.4034 154.82 58.0412 154.391 57.794C153.962 57.5469 153.429 57.4233 152.793 57.4233H151.276V63.8494ZM158.619 65V56.2727H164.091V57.4062H159.936V60.0653H163.805V61.1946H159.936V63.8665H164.142V65H158.619ZM165.419 57.4062V56.2727H172.173V57.4062H169.45V65H168.138V57.4062H165.419ZM173.372 65H171.974L175.115 56.2727H176.636L179.777 65H178.379L175.912 57.858H175.843L173.372 65ZM173.606 61.5824H178.14V62.6903H173.606V61.5824ZM181.037 65V56.2727H182.354V63.8665H186.308V65H181.037ZM187.81 65V56.2727H189.127V60.0653H193.478V56.2727H194.799V65H193.478V61.1946H189.127V65H187.81ZM197.454 65H196.056L199.197 56.2727H200.718L203.859 65H202.461L199.994 57.858H199.925L197.454 65ZM197.688 61.5824H202.222V62.6903H197.688V61.5824ZM211.471 65V56.2727H214.581C215.26 56.2727 215.823 56.3963 216.269 56.6435C216.715 56.8906 217.049 57.2287 217.27 57.6577C217.492 58.0838 217.603 58.5639 217.603 59.098C217.603 59.6349 217.49 60.1179 217.266 60.5469C217.044 60.973 216.709 61.3111 216.26 61.5611C215.814 61.8082 215.253 61.9318 214.577 61.9318H212.438V60.8153H214.458C214.887 60.8153 215.235 60.7415 215.502 60.5938C215.769 60.4432 215.965 60.2386 216.09 59.9801C216.215 59.7216 216.277 59.4276 216.277 59.098C216.277 58.7685 216.215 58.4759 216.09 58.2202C215.965 57.9645 215.767 57.7642 215.498 57.6193C215.23 57.4744 214.878 57.402 214.441 57.402H212.787V65H211.471ZM219.146 65V56.2727H222.257C222.933 56.2727 223.494 56.3892 223.94 56.6222C224.389 56.8551 224.724 57.1776 224.946 57.5895C225.168 57.9986 225.278 58.4716 225.278 59.0085C225.278 59.5426 225.166 60.0128 224.942 60.419C224.72 60.8224 224.385 61.1364 223.936 61.3608C223.49 61.5852 222.929 61.6974 222.253 61.6974H219.896V60.5639H222.134C222.56 60.5639 222.906 60.5028 223.173 60.3807C223.443 60.2585 223.641 60.081 223.766 59.848C223.891 59.6151 223.953 59.3352 223.953 59.0085C223.953 58.679 223.889 58.3935 223.761 58.152C223.636 57.9105 223.439 57.7259 223.169 57.598C222.902 57.4673 222.551 57.402 222.116 57.402H220.463V65H219.146ZM223.455 61.0625L225.611 65H224.111L221.997 61.0625H223.455ZM234.462 60.6364C234.462 61.5682 234.291 62.3693 233.95 63.0398C233.609 63.7074 233.142 64.2216 232.548 64.5824C231.957 64.9403 231.286 65.1193 230.533 65.1193C229.777 65.1193 229.102 64.9403 228.509 64.5824C227.918 64.2216 227.452 63.706 227.111 63.0355C226.77 62.3651 226.599 61.5653 226.599 60.6364C226.599 59.7045 226.77 58.9048 227.111 58.2372C227.452 57.5668 227.918 57.0526 228.509 56.6946C229.102 56.3338 229.777 56.1534 230.533 56.1534C231.286 56.1534 231.957 56.3338 232.548 56.6946C233.142 57.0526 233.609 57.5668 233.95 58.2372C234.291 58.9048 234.462 59.7045 234.462 60.6364ZM233.158 60.6364C233.158 59.9261 233.043 59.3281 232.812 58.8423C232.585 58.3537 232.273 57.9844 231.875 57.7344C231.48 57.4815 231.033 57.3551 230.533 57.3551C230.03 57.3551 229.581 57.4815 229.186 57.7344C228.791 57.9844 228.479 58.3537 228.249 58.8423C228.021 59.3281 227.908 59.9261 227.908 60.6364C227.908 61.3466 228.021 61.946 228.249 62.4347C228.479 62.9205 228.791 63.2898 229.186 63.5426C229.581 63.7926 230.03 63.9176 230.533 63.9176C231.033 63.9176 231.48 63.7926 231.875 63.5426C232.273 63.2898 232.585 62.9205 232.812 62.4347C233.043 61.946 233.158 61.3466 233.158 60.6364ZM238.929 65H236.103V56.2727H239.018C239.873 56.2727 240.608 56.4474 241.221 56.7969C241.835 57.1435 242.305 57.642 242.632 58.2926C242.961 58.9403 243.126 59.7173 243.126 60.6236C243.126 61.5327 242.96 62.3139 242.627 62.9673C242.298 63.6207 241.821 64.1236 241.196 64.4759C240.571 64.8253 239.815 65 238.929 65ZM237.42 63.8494H238.856C239.521 63.8494 240.074 63.7244 240.514 63.4744C240.954 63.2216 241.284 62.8565 241.502 62.3793C241.721 61.8991 241.831 61.3139 241.831 60.6236C241.831 59.9389 241.721 59.358 241.502 58.8807C241.287 58.4034 240.964 58.0412 240.535 57.794C240.106 57.5469 239.574 57.4233 238.937 57.4233H237.42V63.8494ZM250.376 56.2727H251.697V62.0128C251.697 62.6236 251.553 63.1648 251.266 63.6364C250.979 64.1051 250.576 64.4744 250.056 64.7443C249.536 65.0114 248.927 65.1449 248.228 65.1449C247.532 65.1449 246.924 65.0114 246.404 64.7443C245.884 64.4744 245.481 64.1051 245.194 63.6364C244.907 63.1648 244.763 62.6236 244.763 62.0128V56.2727H246.08V61.9062C246.08 62.3011 246.167 62.652 246.34 62.9588C246.516 63.2656 246.765 63.5071 247.086 63.6832C247.407 63.8565 247.788 63.9432 248.228 63.9432C248.671 63.9432 249.053 63.8565 249.374 63.6832C249.698 63.5071 249.945 63.2656 250.116 62.9588C250.289 62.652 250.376 62.3011 250.376 61.9062V56.2727ZM253.181 57.4062V56.2727H259.935V57.4062H257.212V65H255.9V57.4062H253.181ZM268.634 60.6364C268.634 61.5682 268.463 62.3693 268.122 63.0398C267.781 63.7074 267.314 64.2216 266.72 64.5824C266.129 64.9403 265.457 65.1193 264.705 65.1193C263.949 65.1193 263.274 64.9403 262.68 64.5824C262.089 64.2216 261.624 63.706 261.283 63.0355C260.942 62.3651 260.771 61.5653 260.771 60.6364C260.771 59.7045 260.942 58.9048 261.283 58.2372C261.624 57.5668 262.089 57.0526 262.68 56.6946C263.274 56.3338 263.949 56.1534 264.705 56.1534C265.457 56.1534 266.129 56.3338 266.72 56.6946C267.314 57.0526 267.781 57.5668 268.122 58.2372C268.463 58.9048 268.634 59.7045 268.634 60.6364ZM267.33 60.6364C267.33 59.9261 267.214 59.3281 266.984 58.8423C266.757 58.3537 266.445 57.9844 266.047 57.7344C265.652 57.4815 265.205 57.3551 264.705 57.3551C264.202 57.3551 263.753 57.4815 263.358 57.7344C262.963 57.9844 262.651 58.3537 262.42 58.8423C262.193 59.3281 262.08 59.9261 262.08 60.6364C262.08 61.3466 262.193 61.946 262.42 62.4347C262.651 62.9205 262.963 63.2898 263.358 63.5426C263.753 63.7926 264.202 63.9176 264.705 63.9176C265.205 63.9176 265.652 63.7926 266.047 63.5426C266.445 63.2898 266.757 62.9205 266.984 62.4347C267.214 61.946 267.33 61.3466 267.33 60.6364ZM275.035 58.5653C274.99 58.1619 274.802 57.8494 274.473 57.6278C274.143 57.4034 273.728 57.2912 273.228 57.2912C272.87 57.2912 272.561 57.348 272.299 57.4616C272.038 57.5724 271.835 57.7259 271.69 57.9219C271.548 58.1151 271.477 58.3352 271.477 58.5824C271.477 58.7898 271.525 58.9687 271.622 59.1193C271.721 59.2699 271.85 59.3963 272.01 59.4986C272.172 59.598 272.345 59.6818 272.529 59.75C272.714 59.8153 272.892 59.8693 273.062 59.9119L273.914 60.1335C274.193 60.2017 274.478 60.294 274.771 60.4105C275.064 60.527 275.335 60.6804 275.585 60.8707C275.835 61.0611 276.037 61.2969 276.19 61.5781C276.346 61.8594 276.424 62.196 276.424 62.5881C276.424 63.0824 276.297 63.5213 276.041 63.9048C275.788 64.2884 275.42 64.5909 274.937 64.8125C274.457 65.0341 273.876 65.1449 273.194 65.1449C272.541 65.1449 271.975 65.0412 271.498 64.8338C271.021 64.6264 270.647 64.3324 270.377 63.9517C270.108 63.5682 269.958 63.1136 269.93 62.5881H271.251C271.277 62.9034 271.379 63.1662 271.558 63.3764C271.74 63.5838 271.971 63.7386 272.252 63.8409C272.537 63.9403 272.848 63.9901 273.186 63.9901C273.558 63.9901 273.889 63.9318 274.179 63.8153C274.471 63.696 274.701 63.5312 274.869 63.321C275.037 63.108 275.12 62.8594 275.12 62.5753C275.12 62.3168 275.047 62.1051 274.899 61.9403C274.754 61.7756 274.556 61.6392 274.306 61.5312C274.059 61.4233 273.779 61.3281 273.467 61.2457L272.436 60.9645C271.737 60.7741 271.183 60.4943 270.774 60.125C270.368 59.7557 270.164 59.267 270.164 58.6591C270.164 58.1562 270.301 57.7173 270.574 57.3423C270.846 56.9673 271.216 56.6761 271.681 56.4688C272.147 56.2585 272.673 56.1534 273.258 56.1534C273.849 56.1534 274.37 56.2571 274.822 56.4645C275.277 56.6719 275.635 56.9574 275.896 57.321C276.157 57.6818 276.294 58.0966 276.305 58.5653H275.035ZM284.928 60.0824V61.1903H281.059V60.0824H284.928ZM289.806 65V56.2727H293.079C293.749 56.2727 294.312 56.3892 294.766 56.6222C295.224 56.8551 295.569 57.1818 295.802 57.6023C296.038 58.0199 296.156 58.5071 296.156 59.0639C296.156 59.6236 296.036 60.1094 295.798 60.5213C295.562 60.9304 295.214 61.2472 294.754 61.4716C294.293 61.6932 293.728 61.804 293.058 61.804H290.727V60.4915H292.844C293.237 60.4915 293.558 60.4375 293.808 60.3295C294.058 60.2187 294.242 60.0582 294.362 59.848C294.484 59.6349 294.545 59.3736 294.545 59.0639C294.545 58.7543 294.484 58.4901 294.362 58.2713C294.239 58.0497 294.053 57.8821 293.803 57.7685C293.553 57.652 293.231 57.5938 292.836 57.5938H291.387V65H289.806ZM294.315 61.0455L296.475 65H294.711L292.589 61.0455H294.315ZM297.611 65V56.2727H303.202V57.598H299.192V59.9673H302.818V61.2926H299.192V65H297.611ZM305.81 56.2727L308.081 63.142H308.17L310.438 56.2727H312.176L309.099 65H307.148L304.075 56.2727H305.81Z" fill="black"/>
<defs>
<linearGradient id="paint0_linear_1_11" x1="0" y1="0" x2="1261.5" y2="696" gradientUnits="userSpaceOnUse">
<stop stop-color="#17282F"/>
<stop offset="1" stop-color="#497F95"/>
</linearGradient>
</defs>
</svg>
