<svg width="1280" height="720" viewBox="0 0 1280 720" fill="none" xmlns="http://www.w3.org/2000/svg">
<rect width="1280" height="720" fill="url(#paint0_linear_1_11)"/>
<rect x="20" y="20" width="1240" height="680" rx="5" fill="#E5EEEE"/>
<rect x="260" y="106" width="698" height="240" rx="5" fill="#F3F3F3"/>
<rect x="260" y="366" width="698" height="314" rx="5" fill="#F3F3F3"/>
<mask id="mask0_1_11" style="mask-type:alpha" maskUnits="userSpaceOnUse" x="40" y="41" width="84" height="44">
<path d="M54.9819 47.1632V53.3138H56.6465H58.311V47.1632V41.0125H56.6465H54.9819V47.1632Z" fill="#17282F"/>
<path d="M62.921 47.1632V53.3138H66.2499L66.2756 50.7663L66.3139 48.2191L70.1431 57.2028C72.2552 62.1354 74.7273 67.9255 75.6356 70.0497L77.3012 73.9387H79.08C80.7327 73.9387 80.8731 73.9265 80.8087 73.7153C80.7704 73.6032 77.7104 66.3978 73.9968 57.7246C70.2835 49.0389 67.1591 41.7339 67.0564 41.473L66.8645 41.0125H62.921V47.1632Z" fill="#17282F"/>
<path d="M84.4318 47.1632V53.3138H87.761L87.7864 50.7413L87.8251 48.1692L93.3307 61.0544L98.8242 73.9387H100.591C101.564 73.9387 102.358 73.889 102.358 73.8278C102.358 73.7666 99.2222 66.3728 95.3943 57.4022L88.4152 41.075L86.4306 41.0375L84.4318 41V47.1632Z" fill="#17282F"/>
<path d="M105.689 47.1632V53.3138H109.018V44.2311L112.898 44.2676L115.696 44.2945C116.408 44.3017 117.11 44.4625 117.751 44.7653C121.656 46.6539 121.592 51.8973 117.622 53.7231L116.765 54.1217L105.792 54.1842L94.8176 54.2467L95.4838 55.8007L96.1599 57.3534H117.019L118.159 56.9926C120.758 56.1612 122.641 54.3342 123.562 51.7617C123.882 50.8804 123.921 50.5948 123.921 49.2155C123.908 47.872 123.87 47.5256 123.575 46.6558C122.886 44.6032 121.297 42.8395 119.339 41.8823C117.61 41.0625 117.226 41.0125 111.105 41.0125H105.689V47.1632Z" fill="#17282F"/>
<path d="M54.9819 55.7985V57.4137H69.4512L69.2081 56.817C69.0677 56.494 68.7731 55.786 68.53 55.2393L68.0941 54.2467L61.5398 54.2083L54.9819 54.1842V55.7985Z" fill="#17282F"/>
<path d="M73.3184 54.2951C73.3441 54.3576 73.6516 55.0777 73.9974 55.91L74.6369 57.414H82.8072C87.5829 57.414 90.9633 57.3641 90.9375 57.3019C90.9247 57.2394 90.6156 56.5208 90.2595 55.6867L89.6191 54.1842H81.4488C76.673 54.1842 73.2926 54.2342 73.3184 54.2967" fill="#17282F"/>
<path d="M54.9565 62.5453L54.9275 65.8754C54.9211 66.5698 54.7515 67.2537 54.4317 67.8749C53.8811 68.9684 53.0617 69.7635 51.9348 70.2977C51.2303 70.6333 51.1402 70.6458 49.1555 70.6458H48.0631C47.4342 70.6459 46.8137 70.5054 46.2498 70.2352C45.1605 69.7135 44.1109 68.645 43.7004 67.639C43.5072 67.1288 43.3942 66.5571 43.3556 65.702L43.3044 64.4964H40V65.5773C40.0129 68.0124 40.7946 69.8888 42.485 71.5168C44.3411 73.3179 46.0569 73.9396 49.1555 73.9396C52.2036 73.9396 53.958 73.3179 55.763 71.5783C56.8255 70.5599 57.4788 69.5414 57.9405 68.162C58.2222 67.3297 58.2351 67.081 58.2853 62.7193L58.3368 58.1598H54.9951L54.9565 62.5453Z" fill="#17282F"/>
<path d="M62.921 66.0491V73.9396H64.5853H66.2499V66.0491V58.1598H64.5853H62.921V66.0491Z" fill="#17282F"/>
<path d="M84.4328 66.0491V73.9396H86.0974H87.7616V66.0491V58.1598H86.0974H84.4328V66.0491Z" fill="#17282F"/>
<path d="M105.689 66.0491V73.9396H107.353H109.018V66.0491V58.1598H107.353H105.689V66.0491Z" fill="#17282F"/>
<path d="M113.525 58.3829C113.551 58.5078 115.037 62.061 116.828 66.2725L120.094 73.9393H121.861C123.513 73.9393 123.629 73.9268 123.59 73.7159C123.564 73.591 122.079 70.0378 120.286 65.8254L117.021 58.1595H115.254C113.615 58.1595 113.487 58.172 113.525 58.3829Z" fill="#17282F"/>
<path d="M64.2652 79.7291C63.2671 80.2259 62.7925 81.0335 62.7925 82.2641C62.7925 83.5451 63.3048 84.3758 64.3554 84.8113C65.3023 85.1834 66.5448 84.91 67.1337 84.1899L67.2975 83.9778L67.257 83.7472L67.0567 83.6182C66.7106 83.3948 66.6977 83.3948 66.3786 83.6931C65.6481 84.3633 64.8416 84.3511 64.1249 83.6182C63.8187 83.2951 63.7543 83.1339 63.716 82.4125C63.6644 81.4065 63.9333 80.8351 64.6252 80.4868C65.1886 80.2009 65.7006 80.2884 66.264 80.7351C66.6098 81.021 66.6871 81.0335 66.9688 80.8973C67.352 80.6864 67.352 80.5117 66.9804 80.1759C66.3023 79.5557 65.0215 79.3436 64.2662 79.7291" fill="#17282F"/>
<path d="M70.2201 79.7294C69.2336 80.139 68.7732 80.9216 68.7603 82.202C68.7474 83.7547 69.5282 84.7732 70.8853 84.9478C72.4864 85.1587 73.6774 84.0156 73.6774 82.2644C73.6774 80.2262 71.9861 78.984 70.2201 79.7294ZM71.8332 80.4746C72.4607 80.7729 72.781 81.3447 72.781 82.202C72.781 83.4204 72.2176 84.1527 71.244 84.1777C70.233 84.2027 69.4767 83.1705 69.6309 81.9661C69.7198 81.2197 70.0015 80.7979 70.6164 80.4996C71.1541 80.2262 71.2826 80.2262 71.8332 80.4746Z" fill="#17282F"/>
<path d="M82.9605 79.692C82.1282 80.065 81.7953 80.8976 82.1797 81.6177C82.4228 82.0895 82.9347 82.3629 83.9714 82.599C84.3945 82.6862 84.8408 82.8609 84.9695 82.9721C85.2915 83.2454 85.2642 83.7172 84.918 83.9293C84.2403 84.3261 83.5226 84.2639 82.9463 83.7419C82.6388 83.456 81.9984 83.5307 81.9984 83.8415C81.9984 84.0915 82.5747 84.6117 83.0876 84.8226C84.7651 85.494 86.6596 84.1399 85.9303 82.7731C85.6988 82.3138 85.2255 82.0404 84.3034 81.8161C82.9334 81.4928 82.5747 81.0957 83.1636 80.5739C83.5355 80.2509 84.3163 80.2759 84.8034 80.6239C85.174 80.8848 85.2126 80.8973 85.5201 80.6976C85.6988 80.5864 85.8421 80.4477 85.8421 80.3852C85.8421 80.3227 85.6116 80.1243 85.317 79.9385C84.6894 79.5414 83.5754 79.4292 82.9608 79.6885" fill="#17282F"/>
<path d="M75.5977 82.2638V84.8738H76.0455H76.4815L76.5198 82.9843L76.5584 81.1082L77.7613 82.9843L78.9651 84.8738H79.5286H80.0792V82.2638V79.6542H79.6313H79.1825V81.6049V83.5682L77.9413 81.6049L76.6859 79.6542H76.1482H75.5977V82.2638Z" fill="#17282F"/>
<path d="M87.7623 81.5434C87.7623 83.2829 87.7881 83.4941 88.0569 83.9409C88.377 84.5001 89.235 84.9978 89.8754 84.9978C90.4646 84.9853 91.2712 84.5748 91.616 84.1155C91.9106 83.7175 91.9235 83.5688 91.9621 81.668L92.0004 79.6548H91.0912V82.8455C91.0914 83.1909 90.9593 83.5239 90.7206 83.78C90.4389 84.0906 90.2589 84.1768 89.8754 84.1768C89.492 84.1768 89.312 84.0906 89.0306 83.78C88.791 83.5243 88.6584 83.1911 88.6587 82.8455V79.6548H87.7623V81.5434Z" fill="#17282F"/>
<path d="M94.0365 82.2638V84.8738H95.6367H97.2378V84.5004V84.1274H96.0211H94.8044V81.8908V79.6542H94.4209H94.0365V82.2638Z" fill="#17282F"/>
<path d="M97.4938 80.0275V80.4005H98.3261H99.1581V82.6372V84.8729H99.6069H100.055V82.6372V80.4005H100.887H101.719V80.0275V79.6542H99.6069H97.4938V80.0275Z" fill="#17282F"/>
<path d="M40 82.8852C40 82.9724 43.1373 83.0102 49.1555 83.0102C55.1738 83.0102 58.3111 82.9727 58.3111 82.8852C58.3111 82.7977 55.1741 82.7603 49.1555 82.7603C43.137 82.7603 40 82.7977 40 82.8852Z" fill="#17282F"/>
<path d="M105.689 82.8852C105.689 82.9724 108.826 83.0102 114.844 83.0102C120.863 83.0102 124 82.9727 124 82.8852C124 82.7977 120.863 82.7603 114.844 82.7603C108.826 82.7603 105.689 82.7977 105.689 82.8852Z" fill="#17282F"/>
</mask>
<g mask="url(#mask0_1_11)">
<rect x="40" y="41" width="84" height="44.0003" fill="#17282F"/>
</g>
<rect x="40" y="106" width="200" height="574" rx="5" fill="#F3F3F3"/>
<path d="M40 366H240V675C240 677.761 237.761 680 235 680H45C42.2386 680 40 677.761 40 675V366Z" fill="#377A88"/>
<path d="M958 366H1235C1237.76 366 1240 368.239 1240 371V675C1240 677.761 1237.76 680 1235 680H958V366Z" fill="#377A88"/>
<path d="M958 106H1235C1237.76 106 1240 108.239 1240 111V341C1240 343.761 1237.76 346 1235 346H958V106Z" fill="#377A88"/>
<path d="M40 111C40 108.239 42.2386 106 45 106H235C237.761 106 240 108.239 240 111V136H40V111Z" fill="#377A88"/>
<path d="M1004.16 391.672C1004.12 391.3 1003.95 391.01 1003.66 390.803C1003.37 390.595 1002.99 390.491 1002.52 390.491C1002.19 390.491 1001.91 390.541 1001.67 390.641C1001.43 390.74 1001.25 390.875 1001.13 391.045C1001 391.216 1000.94 391.411 1000.94 391.629C1000.94 391.811 1000.98 391.969 1001.06 392.102C1001.15 392.236 1001.26 392.349 1001.41 392.443C1001.55 392.534 1001.71 392.611 1001.89 392.673C1002.06 392.736 1002.24 392.788 1002.42 392.831L1003.24 393.036C1003.57 393.112 1003.88 393.216 1004.19 393.347C1004.49 393.477 1004.77 393.642 1005.01 393.841C1005.25 394.04 1005.45 394.28 1005.59 394.561C1005.73 394.842 1005.8 395.172 1005.8 395.55C1005.8 396.061 1005.67 396.511 1005.41 396.901C1005.15 397.287 1004.77 397.589 1004.28 397.808C1003.79 398.024 1003.19 398.132 1002.49 398.132C1001.81 398.132 1001.22 398.027 1000.72 397.817C1000.23 397.607 999.837 397.3 999.556 396.896C999.277 396.493 999.127 396.001 999.104 395.422H1000.66C1000.68 395.726 1000.78 395.979 1000.94 396.18C1001.11 396.382 1001.32 396.533 1001.58 396.632C1001.85 396.732 1002.15 396.781 1002.48 396.781C1002.82 396.781 1003.12 396.73 1003.38 396.628C1003.64 396.523 1003.85 396.378 1004 396.193C1004.14 396.006 1004.22 395.787 1004.22 395.537C1004.22 395.31 1004.15 395.122 1004.02 394.974C1003.89 394.824 1003.71 394.699 1003.47 394.599C1003.24 394.497 1002.97 394.406 1002.65 394.327L1001.66 394.071C1000.94 393.886 1000.37 393.607 999.956 393.232C999.542 392.854 999.334 392.352 999.334 391.727C999.334 391.213 999.473 390.763 999.752 390.376C1000.03 389.99 1000.42 389.69 1000.9 389.477C1001.38 389.261 1001.93 389.153 1002.54 389.153C1003.16 389.153 1003.7 389.261 1004.17 389.477C1004.64 389.69 1005 389.987 1005.27 390.368C1005.54 390.746 1005.68 391.18 1005.68 391.672H1004.16ZM1010.04 398.128C1009.39 398.128 1008.82 397.991 1008.34 397.719C1007.87 397.443 1007.5 397.054 1007.25 396.551C1006.99 396.045 1006.86 395.45 1006.86 394.766C1006.86 394.092 1006.99 393.501 1007.25 392.993C1007.5 392.482 1007.87 392.084 1008.33 391.8C1008.79 391.513 1009.34 391.369 1009.96 391.369C1010.36 391.369 1010.75 391.435 1011.1 391.565C1011.46 391.693 1011.78 391.892 1012.06 392.162C1012.34 392.432 1012.55 392.776 1012.71 393.193C1012.87 393.608 1012.95 394.102 1012.95 394.676V395.149H1007.59V394.109H1011.47C1011.47 393.814 1011.41 393.551 1011.28 393.321C1011.16 393.088 1010.98 392.905 1010.76 392.771C1010.54 392.638 1010.28 392.571 1009.98 392.571C1009.67 392.571 1009.39 392.648 1009.15 392.801C1008.91 392.952 1008.73 393.151 1008.59 393.398C1008.46 393.642 1008.4 393.911 1008.39 394.203V395.111C1008.39 395.491 1008.46 395.818 1008.6 396.091C1008.74 396.361 1008.94 396.568 1009.19 396.713C1009.44 396.855 1009.73 396.926 1010.06 396.926C1010.29 396.926 1010.49 396.895 1010.67 396.832C1010.85 396.767 1011.01 396.672 1011.15 396.547C1011.28 396.422 1011.38 396.267 1011.45 396.082L1012.89 396.244C1012.8 396.625 1012.62 396.957 1012.37 397.241C1012.12 397.523 1011.79 397.741 1011.4 397.898C1011 398.051 1010.55 398.128 1010.04 398.128ZM1015.8 389.273V398H1014.26V389.273H1015.8ZM1020.28 398.128C1019.63 398.128 1019.06 397.991 1018.58 397.719C1018.11 397.443 1017.74 397.054 1017.49 396.551C1017.23 396.045 1017.11 395.45 1017.11 394.766C1017.11 394.092 1017.23 393.501 1017.49 392.993C1017.75 392.482 1018.11 392.084 1018.57 391.8C1019.03 391.513 1019.58 391.369 1020.2 391.369C1020.61 391.369 1020.99 391.435 1021.35 391.565C1021.71 391.693 1022.02 391.892 1022.3 392.162C1022.58 392.432 1022.8 392.776 1022.96 393.193C1023.12 393.608 1023.19 394.102 1023.19 394.676V395.149H1017.83V394.109H1021.72C1021.71 393.814 1021.65 393.551 1021.52 393.321C1021.4 393.088 1021.22 392.905 1021 392.771C1020.78 392.638 1020.52 392.571 1020.22 392.571C1019.91 392.571 1019.63 392.648 1019.39 392.801C1019.15 392.952 1018.97 393.151 1018.84 393.398C1018.7 393.642 1018.64 393.911 1018.63 394.203V395.111C1018.63 395.491 1018.7 395.818 1018.84 396.091C1018.98 396.361 1019.18 396.568 1019.43 396.713C1019.68 396.855 1019.97 396.926 1020.31 396.926C1020.53 396.926 1020.73 396.895 1020.91 396.832C1021.1 396.767 1021.25 396.672 1021.39 396.547C1021.52 396.422 1021.62 396.267 1021.69 396.082L1023.13 396.244C1023.04 396.625 1022.87 396.957 1022.61 397.241C1022.36 397.523 1022.03 397.741 1021.64 397.898C1021.24 398.051 1020.79 398.128 1020.28 398.128ZM1027.35 398.128C1026.7 398.128 1026.14 397.984 1025.67 397.697C1025.21 397.411 1024.85 397.014 1024.59 396.509C1024.34 396 1024.22 395.415 1024.22 394.753C1024.22 394.088 1024.35 393.501 1024.6 392.993C1024.86 392.482 1025.22 392.084 1025.68 391.8C1026.15 391.513 1026.71 391.369 1027.35 391.369C1027.88 391.369 1028.35 391.467 1028.76 391.663C1029.17 391.857 1029.5 392.131 1029.74 392.486C1029.99 392.838 1030.12 393.25 1030.16 393.722H1028.68C1028.62 393.406 1028.48 393.143 1028.26 392.933C1028.04 392.72 1027.74 392.614 1027.37 392.614C1027.05 392.614 1026.78 392.699 1026.54 392.869C1026.3 393.037 1026.11 393.278 1025.98 393.594C1025.85 393.909 1025.78 394.287 1025.78 394.727C1025.78 395.173 1025.85 395.557 1025.98 395.878C1026.11 396.196 1026.29 396.442 1026.53 396.615C1026.77 396.786 1027.05 396.871 1027.37 396.871C1027.59 396.871 1027.8 396.828 1027.98 396.743C1028.16 396.655 1028.31 396.528 1028.43 396.364C1028.56 396.199 1028.64 395.999 1028.68 395.763H1030.16C1030.12 396.226 1029.99 396.636 1029.75 396.994C1029.51 397.349 1029.19 397.628 1028.79 397.83C1028.38 398.028 1027.9 398.128 1027.35 398.128ZM1031.43 398V391.455H1032.97V398H1031.43ZM1032.2 390.526C1031.96 390.526 1031.75 390.445 1031.57 390.283C1031.39 390.118 1031.31 389.92 1031.31 389.69C1031.31 389.457 1031.39 389.26 1031.57 389.098C1031.75 388.933 1031.96 388.851 1032.2 388.851C1032.45 388.851 1032.66 388.933 1032.83 389.098C1033.01 389.26 1033.1 389.457 1033.1 389.69C1033.1 389.92 1033.01 390.118 1032.83 390.283C1032.66 390.445 1032.45 390.526 1032.2 390.526ZM1037.41 398.128C1036.77 398.128 1036.22 397.987 1035.75 397.706C1035.28 397.425 1034.92 397.031 1034.66 396.526C1034.4 396.02 1034.27 395.429 1034.27 394.753C1034.27 394.077 1034.4 393.484 1034.66 392.976C1034.92 392.467 1035.28 392.072 1035.75 391.791C1036.22 391.51 1036.77 391.369 1037.41 391.369C1038.05 391.369 1038.6 391.51 1039.07 391.791C1039.54 392.072 1039.9 392.467 1040.16 392.976C1040.42 393.484 1040.55 394.077 1040.55 394.753C1040.55 395.429 1040.42 396.02 1040.16 396.526C1039.9 397.031 1039.54 397.425 1039.07 397.706C1038.6 397.987 1038.05 398.128 1037.41 398.128ZM1037.42 396.892C1037.76 396.892 1038.05 396.797 1038.29 396.607C1038.52 396.413 1038.69 396.155 1038.81 395.831C1038.92 395.507 1038.98 395.146 1038.98 394.749C1038.98 394.348 1038.92 393.986 1038.81 393.662C1038.69 393.335 1038.52 393.075 1038.29 392.882C1038.05 392.689 1037.76 392.592 1037.42 392.592C1037.06 392.592 1036.77 392.689 1036.53 392.882C1036.3 393.075 1036.12 393.335 1036.01 393.662C1035.89 393.986 1035.84 394.348 1035.84 394.749C1035.84 395.146 1035.89 395.507 1036.01 395.831C1036.12 396.155 1036.3 396.413 1036.53 396.607C1036.77 396.797 1037.06 396.892 1037.42 396.892ZM1043.4 394.165V398H1041.86V391.455H1043.33V392.567H1043.41C1043.56 392.2 1043.8 391.909 1044.13 391.693C1044.46 391.477 1044.87 391.369 1045.36 391.369C1045.81 391.369 1046.2 391.466 1046.54 391.659C1046.88 391.852 1047.14 392.132 1047.32 392.499C1047.51 392.865 1047.6 393.31 1047.6 393.832V398H1046.06V394.071C1046.06 393.634 1045.94 393.291 1045.72 393.044C1045.49 392.797 1045.18 392.673 1044.78 392.673C1044.51 392.673 1044.27 392.733 1044.06 392.852C1043.86 392.969 1043.69 393.138 1043.57 393.359C1043.46 393.581 1043.4 393.849 1043.4 394.165ZM1052.07 398.128C1051.41 398.128 1050.84 397.991 1050.37 397.719C1049.89 397.443 1049.53 397.054 1049.27 396.551C1049.01 396.045 1048.89 395.45 1048.89 394.766C1048.89 394.092 1049.01 393.501 1049.27 392.993C1049.53 392.482 1049.89 392.084 1050.35 391.8C1050.82 391.513 1051.36 391.369 1051.98 391.369C1052.39 391.369 1052.77 391.435 1053.13 391.565C1053.49 391.693 1053.81 391.892 1054.08 392.162C1054.36 392.432 1054.58 392.776 1054.74 393.193C1054.9 393.608 1054.98 394.102 1054.98 394.676V395.149H1049.61V394.109H1053.5C1053.49 393.814 1053.43 393.551 1053.31 393.321C1053.18 393.088 1053.01 392.905 1052.78 392.771C1052.56 392.638 1052.3 392.571 1052.01 392.571C1051.69 392.571 1051.41 392.648 1051.17 392.801C1050.94 392.952 1050.75 393.151 1050.62 393.398C1050.49 393.642 1050.42 393.911 1050.42 394.203V395.111C1050.42 395.491 1050.49 395.818 1050.62 396.091C1050.76 396.361 1050.96 396.568 1051.21 396.713C1051.46 396.855 1051.75 396.926 1052.09 396.926C1052.31 396.926 1052.51 396.895 1052.7 396.832C1052.88 396.767 1053.04 396.672 1053.17 396.547C1053.3 396.422 1053.4 396.267 1053.47 396.082L1054.91 396.244C1054.82 396.625 1054.65 396.957 1054.39 397.241C1054.14 397.523 1053.82 397.741 1053.42 397.898C1053.03 398.051 1052.57 398.128 1052.07 398.128ZM1059.26 400.455V391.455H1060.77V392.537H1060.86C1060.94 392.378 1061.06 392.209 1061.2 392.03C1061.35 391.848 1061.54 391.693 1061.79 391.565C1062.04 391.435 1062.35 391.369 1062.73 391.369C1063.24 391.369 1063.7 391.499 1064.1 391.757C1064.51 392.013 1064.84 392.392 1065.07 392.895C1065.32 393.395 1065.44 394.009 1065.44 394.736C1065.44 395.455 1065.32 396.065 1065.08 396.568C1064.85 397.071 1064.53 397.455 1064.12 397.719C1063.71 397.983 1063.25 398.115 1062.74 398.115C1062.36 398.115 1062.05 398.053 1061.81 397.928C1061.56 397.803 1061.36 397.652 1061.21 397.476C1061.06 397.297 1060.95 397.128 1060.86 396.969H1060.8V400.455H1059.26ZM1060.77 394.727C1060.77 395.151 1060.83 395.521 1060.95 395.839C1061.07 396.158 1061.25 396.406 1061.47 396.585C1061.7 396.761 1061.98 396.849 1062.31 396.849C1062.65 396.849 1062.94 396.759 1063.17 396.577C1063.4 396.392 1063.57 396.141 1063.69 395.822C1063.8 395.501 1063.86 395.136 1063.86 394.727C1063.86 394.321 1063.81 393.96 1063.69 393.645C1063.57 393.33 1063.4 393.082 1063.17 392.903C1062.94 392.724 1062.65 392.635 1062.31 392.635C1061.98 392.635 1061.7 392.722 1061.47 392.895C1061.24 393.068 1061.06 393.311 1060.94 393.624C1060.83 393.936 1060.77 394.304 1060.77 394.727ZM1068.64 398.132C1068.23 398.132 1067.85 398.058 1067.52 397.911C1067.19 397.76 1066.93 397.538 1066.74 397.246C1066.55 396.953 1066.45 396.592 1066.45 396.163C1066.45 395.794 1066.52 395.489 1066.66 395.247C1066.79 395.006 1066.98 394.812 1067.21 394.668C1067.45 394.523 1067.71 394.413 1068.01 394.339C1068.31 394.263 1068.62 394.207 1068.94 394.173C1069.32 394.134 1069.63 394.098 1069.87 394.067C1070.11 394.033 1070.28 393.982 1070.39 393.913C1070.5 393.842 1070.55 393.733 1070.55 393.585V393.56C1070.55 393.239 1070.46 392.99 1070.27 392.814C1070.08 392.638 1069.8 392.55 1069.45 392.55C1069.07 392.55 1068.77 392.632 1068.55 392.797C1068.33 392.962 1068.18 393.156 1068.1 393.381L1066.66 393.176C1066.78 392.778 1066.96 392.446 1067.23 392.179C1067.49 391.909 1067.81 391.707 1068.19 391.574C1068.56 391.438 1068.98 391.369 1069.44 391.369C1069.75 391.369 1070.07 391.406 1070.38 391.48C1070.69 391.554 1070.98 391.676 1071.24 391.847C1071.49 392.014 1071.7 392.243 1071.86 392.533C1072.02 392.822 1072.1 393.185 1072.1 393.619V398H1070.61V397.101H1070.56C1070.47 397.283 1070.34 397.453 1070.17 397.612C1070 397.768 1069.79 397.895 1069.53 397.991C1069.28 398.085 1068.98 398.132 1068.64 398.132ZM1069.04 396.999C1069.35 396.999 1069.62 396.937 1069.85 396.815C1070.07 396.69 1070.25 396.526 1070.37 396.321C1070.5 396.116 1070.56 395.893 1070.56 395.652V394.881C1070.51 394.92 1070.43 394.957 1070.31 394.991C1070.2 395.026 1070.07 395.055 1069.93 395.081C1069.79 395.107 1069.65 395.129 1069.51 395.149C1069.37 395.169 1069.25 395.186 1069.14 395.2C1068.91 395.232 1068.71 395.283 1068.53 395.354C1068.34 395.425 1068.2 395.524 1068.1 395.652C1067.99 395.777 1067.94 395.939 1067.94 396.138C1067.94 396.422 1068.04 396.636 1068.25 396.781C1068.46 396.926 1068.72 396.999 1069.04 396.999ZM1073.65 398V391.455H1075.14V392.545H1075.21C1075.33 392.168 1075.54 391.876 1075.83 391.672C1076.12 391.464 1076.45 391.361 1076.83 391.361C1076.91 391.361 1077.01 391.365 1077.11 391.374C1077.22 391.379 1077.31 391.389 1077.38 391.403V392.822C1077.32 392.8 1077.21 392.78 1077.07 392.763C1076.93 392.743 1076.8 392.733 1076.67 392.733C1076.38 392.733 1076.13 392.794 1075.91 392.916C1075.69 393.036 1075.51 393.202 1075.38 393.415C1075.25 393.628 1075.19 393.874 1075.19 394.152V398H1073.65ZM1080.17 398.132C1079.76 398.132 1079.38 398.058 1079.05 397.911C1078.72 397.76 1078.46 397.538 1078.27 397.246C1078.08 396.953 1077.98 396.592 1077.98 396.163C1077.98 395.794 1078.05 395.489 1078.19 395.247C1078.32 395.006 1078.51 394.812 1078.74 394.668C1078.98 394.523 1079.25 394.413 1079.54 394.339C1079.84 394.263 1080.15 394.207 1080.47 394.173C1080.85 394.134 1081.16 394.098 1081.4 394.067C1081.64 394.033 1081.81 393.982 1081.92 393.913C1082.03 393.842 1082.09 393.733 1082.09 393.585V393.56C1082.09 393.239 1081.99 392.99 1081.8 392.814C1081.61 392.638 1081.34 392.55 1080.98 392.55C1080.6 392.55 1080.3 392.632 1080.08 392.797C1079.86 392.962 1079.71 393.156 1079.64 393.381L1078.19 393.176C1078.31 392.778 1078.5 392.446 1078.76 392.179C1079.02 391.909 1079.34 391.707 1079.72 391.574C1080.09 391.438 1080.51 391.369 1080.97 391.369C1081.28 391.369 1081.6 391.406 1081.91 391.48C1082.22 391.554 1082.51 391.676 1082.77 391.847C1083.03 392.014 1083.23 392.243 1083.39 392.533C1083.55 392.822 1083.63 393.185 1083.63 393.619V398H1082.15V397.101H1082.09C1082 397.283 1081.87 397.453 1081.7 397.612C1081.53 397.768 1081.32 397.895 1081.06 397.991C1080.81 398.085 1080.51 398.132 1080.17 398.132ZM1080.57 396.999C1080.88 396.999 1081.15 396.937 1081.38 396.815C1081.61 396.69 1081.78 396.526 1081.9 396.321C1082.03 396.116 1082.09 395.893 1082.09 395.652V394.881C1082.04 394.92 1081.96 394.957 1081.84 394.991C1081.73 395.026 1081.6 395.055 1081.46 395.081C1081.32 395.107 1081.18 395.129 1081.04 395.149C1080.9 395.169 1080.78 395.186 1080.68 395.2C1080.44 395.232 1080.24 395.283 1080.06 395.354C1079.88 395.425 1079.73 395.524 1079.63 395.652C1079.52 395.777 1079.47 395.939 1079.47 396.138C1079.47 396.422 1079.57 396.636 1079.78 396.781C1079.99 396.926 1080.25 396.999 1080.57 396.999ZM1088.16 398V391.455H1089.63V392.567H1089.71C1089.84 392.192 1090.07 391.899 1090.38 391.689C1090.7 391.476 1091.08 391.369 1091.51 391.369C1091.96 391.369 1092.33 391.477 1092.63 391.693C1092.94 391.906 1093.16 392.197 1093.28 392.567H1093.35C1093.5 392.203 1093.74 391.913 1094.08 391.697C1094.43 391.479 1094.84 391.369 1095.31 391.369C1095.92 391.369 1096.41 391.56 1096.79 391.94C1097.17 392.321 1097.36 392.876 1097.36 393.607V398H1095.81V393.845C1095.81 393.439 1095.71 393.142 1095.49 392.955C1095.27 392.764 1095.01 392.669 1094.7 392.669C1094.32 392.669 1094.03 392.786 1093.82 393.018C1093.62 393.249 1093.51 393.548 1093.51 393.918V398H1092V393.781C1092 393.443 1091.9 393.173 1091.69 392.972C1091.49 392.77 1091.23 392.669 1090.9 392.669C1090.68 392.669 1090.48 392.726 1090.3 392.839C1090.11 392.95 1089.97 393.108 1089.86 393.312C1089.75 393.514 1089.7 393.75 1089.7 394.02V398H1088.16ZM1103.1 395.247V391.455H1104.64V398H1103.14V396.837H1103.08C1102.93 397.203 1102.69 397.503 1102.35 397.736C1102.01 397.969 1101.6 398.085 1101.11 398.085C1100.68 398.085 1100.3 397.99 1099.97 397.8C1099.64 397.607 1099.39 397.327 1099.2 396.96C1099.02 396.591 1098.93 396.145 1098.93 395.622V391.455H1100.47V395.384C1100.47 395.798 1100.58 396.128 1100.81 396.372C1101.04 396.616 1101.33 396.739 1101.7 396.739C1101.93 396.739 1102.15 396.683 1102.36 396.572C1102.58 396.462 1102.75 396.297 1102.89 396.078C1103.03 395.857 1103.1 395.58 1103.1 395.247ZM1108.66 398.115C1108.14 398.115 1107.68 397.983 1107.27 397.719C1106.87 397.455 1106.55 397.071 1106.31 396.568C1106.08 396.065 1105.96 395.455 1105.96 394.736C1105.96 394.009 1106.08 393.395 1106.32 392.895C1106.56 392.392 1106.88 392.013 1107.29 391.757C1107.7 391.499 1108.16 391.369 1108.66 391.369C1109.04 391.369 1109.36 391.435 1109.61 391.565C1109.85 391.693 1110.05 391.848 1110.19 392.03C1110.34 392.209 1110.45 392.378 1110.53 392.537H1110.59V389.273H1112.14V398H1110.62V396.969H1110.53C1110.45 397.128 1110.34 397.297 1110.19 397.476C1110.03 397.652 1109.84 397.803 1109.59 397.928C1109.34 398.053 1109.03 398.115 1108.66 398.115ZM1109.09 396.849C1109.41 396.849 1109.69 396.761 1109.92 396.585C1110.15 396.406 1110.33 396.158 1110.44 395.839C1110.56 395.521 1110.62 395.151 1110.62 394.727C1110.62 394.304 1110.56 393.936 1110.44 393.624C1110.33 393.311 1110.16 393.068 1109.93 392.895C1109.7 392.722 1109.42 392.635 1109.09 392.635C1108.74 392.635 1108.45 392.724 1108.22 392.903C1107.99 393.082 1107.82 393.33 1107.7 393.645C1107.59 393.96 1107.53 394.321 1107.53 394.727C1107.53 395.136 1107.59 395.501 1107.7 395.822C1107.82 396.141 1108 396.392 1108.23 396.577C1108.46 396.759 1108.75 396.849 1109.09 396.849ZM1115.67 398.132C1115.25 398.132 1114.88 398.058 1114.55 397.911C1114.22 397.76 1113.96 397.538 1113.76 397.246C1113.57 396.953 1113.48 396.592 1113.48 396.163C1113.48 395.794 1113.55 395.489 1113.68 395.247C1113.82 395.006 1114 394.812 1114.24 394.668C1114.48 394.523 1114.74 394.413 1115.04 394.339C1115.34 394.263 1115.64 394.207 1115.96 394.173C1116.35 394.134 1116.66 394.098 1116.9 394.067C1117.13 394.033 1117.31 393.982 1117.42 393.913C1117.53 393.842 1117.58 393.733 1117.58 393.585V393.56C1117.58 393.239 1117.49 392.99 1117.3 392.814C1117.11 392.638 1116.83 392.55 1116.47 392.55C1116.1 392.55 1115.8 392.632 1115.57 392.797C1115.36 392.962 1115.21 393.156 1115.13 393.381L1113.69 393.176C1113.8 392.778 1113.99 392.446 1114.25 392.179C1114.51 391.909 1114.83 391.707 1115.21 391.574C1115.59 391.438 1116.01 391.369 1116.47 391.369C1116.78 391.369 1117.09 391.406 1117.41 391.48C1117.72 391.554 1118 391.676 1118.26 391.847C1118.52 392.014 1118.73 392.243 1118.89 392.533C1119.04 392.822 1119.12 393.185 1119.12 393.619V398H1117.64V397.101H1117.59C1117.5 397.283 1117.36 397.453 1117.19 397.612C1117.03 397.768 1116.81 397.895 1116.56 397.991C1116.31 398.085 1116.01 398.132 1115.67 398.132ZM1116.07 396.999C1116.38 396.999 1116.65 396.937 1116.87 396.815C1117.1 396.69 1117.28 396.526 1117.4 396.321C1117.52 396.116 1117.59 395.893 1117.59 395.652V394.881C1117.54 394.92 1117.46 394.957 1117.34 394.991C1117.23 395.026 1117.1 395.055 1116.96 395.081C1116.81 395.107 1116.67 395.129 1116.53 395.149C1116.39 395.169 1116.27 395.186 1116.17 395.2C1115.94 395.232 1115.74 395.283 1115.55 395.354C1115.37 395.425 1115.23 395.524 1115.12 395.652C1115.02 395.777 1114.97 395.939 1114.97 396.138C1114.97 396.422 1115.07 396.636 1115.28 396.781C1115.48 396.926 1115.75 396.999 1116.07 396.999ZM1120.68 398V391.455H1122.17V392.545H1122.24C1122.36 392.168 1122.56 391.876 1122.85 391.672C1123.15 391.464 1123.48 391.361 1123.85 391.361C1123.94 391.361 1124.03 391.365 1124.14 391.374C1124.25 391.379 1124.34 391.389 1124.41 391.403V392.822C1124.34 392.8 1124.24 392.78 1124.1 392.763C1123.96 392.743 1123.82 392.733 1123.69 392.733C1123.41 392.733 1123.16 392.794 1122.93 392.916C1122.71 393.036 1122.54 393.202 1122.41 393.415C1122.28 393.628 1122.22 393.874 1122.22 394.152V398H1120.68ZM1134.26 391.455L1131.93 398H1130.22L1127.89 391.455H1129.53L1131.04 396.317H1131.11L1132.62 391.455H1134.26ZM1135.32 398V391.455H1136.87V398H1135.32ZM1136.1 390.526C1135.86 390.526 1135.64 390.445 1135.47 390.283C1135.29 390.118 1135.2 389.92 1135.2 389.69C1135.2 389.457 1135.29 389.26 1135.47 389.098C1135.64 388.933 1135.86 388.851 1136.1 388.851C1136.35 388.851 1136.56 388.933 1136.73 389.098C1136.91 389.26 1136.99 389.457 1136.99 389.69C1136.99 389.92 1136.91 390.118 1136.73 390.283C1136.56 390.445 1136.35 390.526 1136.1 390.526ZM1143.63 393.185L1142.22 393.338C1142.18 393.196 1142.11 393.062 1142.01 392.938C1141.91 392.812 1141.78 392.712 1141.62 392.635C1141.45 392.558 1141.25 392.52 1141.01 392.52C1140.69 392.52 1140.42 392.589 1140.2 392.729C1139.99 392.868 1139.88 393.048 1139.88 393.27C1139.88 393.46 1139.95 393.615 1140.09 393.734C1140.24 393.854 1140.48 393.952 1140.81 394.028L1141.93 394.267C1142.55 394.401 1143.01 394.612 1143.31 394.902C1143.61 395.192 1143.76 395.571 1143.77 396.04C1143.76 396.452 1143.64 396.815 1143.4 397.131C1143.17 397.443 1142.84 397.687 1142.42 397.864C1142 398.04 1141.52 398.128 1140.97 398.128C1140.17 398.128 1139.53 397.96 1139.04 397.625C1138.55 397.287 1138.26 396.817 1138.16 396.214L1139.67 396.07C1139.74 396.365 1139.88 396.588 1140.1 396.739C1140.32 396.889 1140.61 396.964 1140.97 396.964C1141.33 396.964 1141.63 396.889 1141.85 396.739C1142.07 396.588 1142.19 396.402 1142.19 396.18C1142.19 395.993 1142.11 395.838 1141.97 395.716C1141.83 395.594 1141.6 395.5 1141.3 395.435L1140.19 395.2C1139.56 395.07 1139.09 394.849 1138.79 394.54C1138.49 394.227 1138.34 393.832 1138.35 393.355C1138.34 392.952 1138.45 392.602 1138.67 392.307C1138.9 392.009 1139.21 391.778 1139.61 391.616C1140.01 391.452 1140.47 391.369 1140.99 391.369C1141.76 391.369 1142.36 391.533 1142.8 391.859C1143.25 392.186 1143.52 392.628 1143.63 393.185ZM1149.21 395.247V391.455H1150.75V398H1149.26V396.837H1149.19C1149.04 397.203 1148.8 397.503 1148.46 397.736C1148.13 397.969 1147.71 398.085 1147.22 398.085C1146.79 398.085 1146.41 397.99 1146.08 397.8C1145.76 397.607 1145.5 397.327 1145.32 396.96C1145.13 396.591 1145.04 396.145 1145.04 395.622V391.455H1146.58V395.384C1146.58 395.798 1146.69 396.128 1146.92 396.372C1147.15 396.616 1147.45 396.739 1147.82 396.739C1148.04 396.739 1148.26 396.683 1148.48 396.572C1148.69 396.462 1148.87 396.297 1149 396.078C1149.14 395.857 1149.21 395.58 1149.21 395.247ZM1154.22 398.132C1153.81 398.132 1153.43 398.058 1153.1 397.911C1152.77 397.76 1152.51 397.538 1152.32 397.246C1152.13 396.953 1152.03 396.592 1152.03 396.163C1152.03 395.794 1152.1 395.489 1152.24 395.247C1152.37 395.006 1152.56 394.812 1152.8 394.668C1153.03 394.523 1153.3 394.413 1153.59 394.339C1153.89 394.263 1154.2 394.207 1154.52 394.173C1154.9 394.134 1155.21 394.098 1155.45 394.067C1155.69 394.033 1155.86 393.982 1155.97 393.913C1156.08 393.842 1156.14 393.733 1156.14 393.585V393.56C1156.14 393.239 1156.04 392.99 1155.85 392.814C1155.66 392.638 1155.39 392.55 1155.03 392.55C1154.65 392.55 1154.35 392.632 1154.13 392.797C1153.91 392.962 1153.76 393.156 1153.69 393.381L1152.25 393.176C1152.36 392.778 1152.55 392.446 1152.81 392.179C1153.07 391.909 1153.39 391.707 1153.77 391.574C1154.14 391.438 1154.56 391.369 1155.02 391.369C1155.34 391.369 1155.65 391.406 1155.96 391.48C1156.27 391.554 1156.56 391.676 1156.82 391.847C1157.08 392.014 1157.28 392.243 1157.44 392.533C1157.6 392.822 1157.68 393.185 1157.68 393.619V398H1156.2V397.101H1156.14C1156.05 397.283 1155.92 397.453 1155.75 397.612C1155.58 397.768 1155.37 397.895 1155.11 397.991C1154.86 398.085 1154.56 398.132 1154.22 398.132ZM1154.62 396.999C1154.93 396.999 1155.2 396.937 1155.43 396.815C1155.66 396.69 1155.83 396.526 1155.95 396.321C1156.08 396.116 1156.14 395.893 1156.14 395.652V394.881C1156.09 394.92 1156.01 394.957 1155.89 394.991C1155.78 395.026 1155.65 395.055 1155.51 395.081C1155.37 395.107 1155.23 395.129 1155.09 395.149C1154.95 395.169 1154.83 395.186 1154.73 395.2C1154.5 395.232 1154.29 395.283 1154.11 395.354C1153.93 395.425 1153.78 395.524 1153.68 395.652C1153.57 395.777 1153.52 395.939 1153.52 396.138C1153.52 396.422 1153.62 396.636 1153.83 396.781C1154.04 396.926 1154.3 396.999 1154.62 396.999ZM1160.77 389.273V398H1159.23V389.273H1160.77ZM1162.36 398V391.455H1163.9V398H1162.36ZM1163.13 390.526C1162.89 390.526 1162.68 390.445 1162.5 390.283C1162.33 390.118 1162.24 389.92 1162.24 389.69C1162.24 389.457 1162.33 389.26 1162.5 389.098C1162.68 388.933 1162.89 388.851 1163.13 388.851C1163.38 388.851 1163.59 388.933 1163.77 389.098C1163.94 389.26 1164.03 389.457 1164.03 389.69C1164.03 389.92 1163.94 390.118 1163.77 390.283C1163.59 390.445 1163.38 390.526 1163.13 390.526ZM1165.4 398V397.02L1168.78 392.788V392.733H1165.51V391.455H1170.67V392.507L1167.45 396.666V396.722H1170.78V398H1165.4ZM1174.11 398.132C1173.69 398.132 1173.32 398.058 1172.99 397.911C1172.66 397.76 1172.4 397.538 1172.2 397.246C1172.01 396.953 1171.92 396.592 1171.92 396.163C1171.92 395.794 1171.99 395.489 1172.12 395.247C1172.26 395.006 1172.45 394.812 1172.68 394.668C1172.92 394.523 1173.18 394.413 1173.48 394.339C1173.78 394.263 1174.09 394.207 1174.4 394.173C1174.79 394.134 1175.1 394.098 1175.34 394.067C1175.58 394.033 1175.75 393.982 1175.86 393.913C1175.97 393.842 1176.02 393.733 1176.02 393.585V393.56C1176.02 393.239 1175.93 392.99 1175.74 392.814C1175.55 392.638 1175.27 392.55 1174.92 392.55C1174.54 392.55 1174.24 392.632 1174.02 392.797C1173.8 392.962 1173.65 393.156 1173.57 393.381L1172.13 393.176C1172.25 392.778 1172.43 392.446 1172.69 392.179C1172.96 391.909 1173.28 391.707 1173.65 391.574C1174.03 391.438 1174.45 391.369 1174.91 391.369C1175.22 391.369 1175.54 391.406 1175.85 391.48C1176.16 391.554 1176.45 391.676 1176.7 391.847C1176.96 392.014 1177.17 392.243 1177.33 392.533C1177.49 392.822 1177.57 393.185 1177.57 393.619V398H1176.08V397.101H1176.03C1175.94 397.283 1175.81 397.453 1175.64 397.612C1175.47 397.768 1175.26 397.895 1175 397.991C1174.75 398.085 1174.45 398.132 1174.11 398.132ZM1174.51 396.999C1174.82 396.999 1175.09 396.937 1175.32 396.815C1175.54 396.69 1175.72 396.526 1175.84 396.321C1175.96 396.116 1176.03 395.893 1176.03 395.652V394.881C1175.98 394.92 1175.9 394.957 1175.78 394.991C1175.67 395.026 1175.54 395.055 1175.4 395.081C1175.25 395.107 1175.11 395.129 1174.97 395.149C1174.84 395.169 1174.71 395.186 1174.61 395.2C1174.38 395.232 1174.18 395.283 1173.99 395.354C1173.81 395.425 1173.67 395.524 1173.56 395.652C1173.46 395.777 1173.41 395.939 1173.41 396.138C1173.41 396.422 1173.51 396.636 1173.72 396.781C1173.93 396.926 1174.19 396.999 1174.51 396.999ZM1181.97 398.128C1181.32 398.128 1180.76 397.984 1180.29 397.697C1179.82 397.411 1179.46 397.014 1179.21 396.509C1178.96 396 1178.84 395.415 1178.84 394.753C1178.84 394.088 1178.96 393.501 1179.22 392.993C1179.47 392.482 1179.84 392.084 1180.3 391.8C1180.77 391.513 1181.32 391.369 1181.96 391.369C1182.49 391.369 1182.96 391.467 1183.37 391.663C1183.79 391.857 1184.11 392.131 1184.36 392.486C1184.6 392.838 1184.74 393.25 1184.78 393.722H1183.3C1183.24 393.406 1183.1 393.143 1182.88 392.933C1182.65 392.72 1182.36 392.614 1181.98 392.614C1181.67 392.614 1181.39 392.699 1181.15 392.869C1180.92 393.037 1180.73 393.278 1180.6 393.594C1180.46 393.909 1180.4 394.287 1180.4 394.727C1180.4 395.173 1180.46 395.557 1180.6 395.878C1180.73 396.196 1180.91 396.442 1181.15 396.615C1181.38 396.786 1181.66 396.871 1181.98 396.871C1182.21 396.871 1182.42 396.828 1182.59 396.743C1182.78 396.655 1182.93 396.528 1183.05 396.364C1183.17 396.199 1183.26 395.999 1183.3 395.763H1184.78C1184.74 396.226 1184.6 396.636 1184.37 396.994C1184.13 397.349 1183.81 397.628 1183.4 397.83C1183 398.028 1182.52 398.128 1181.97 398.128ZM1181.53 397.966H1182.36L1182.3 398.328C1182.56 398.368 1182.79 398.47 1182.97 398.635C1183.16 398.803 1183.25 399.043 1183.25 399.355C1183.26 399.759 1183.08 400.082 1182.71 400.327C1182.35 400.571 1181.83 400.693 1181.16 400.693L1181.14 399.935C1181.47 399.935 1181.73 399.891 1181.92 399.803C1182.11 399.717 1182.21 399.581 1182.21 399.393C1182.22 399.212 1182.15 399.078 1182.01 398.993C1181.87 398.911 1181.65 398.854 1181.35 398.822L1181.53 397.966ZM1187.93 398.132C1187.51 398.132 1187.14 398.058 1186.81 397.911C1186.48 397.76 1186.21 397.538 1186.02 397.246C1185.83 396.953 1185.74 396.592 1185.74 396.163C1185.74 395.794 1185.8 395.489 1185.94 395.247C1186.08 395.006 1186.26 394.812 1186.5 394.668C1186.73 394.523 1187 394.413 1187.3 394.339C1187.59 394.263 1187.9 394.207 1188.22 394.173C1188.6 394.134 1188.91 394.098 1189.15 394.067C1189.39 394.033 1189.57 393.982 1189.67 393.913C1189.78 393.842 1189.84 393.733 1189.84 393.585V393.56C1189.84 393.239 1189.74 392.99 1189.55 392.814C1189.36 392.638 1189.09 392.55 1188.73 392.55C1188.35 392.55 1188.05 392.632 1187.83 392.797C1187.61 392.962 1187.47 393.156 1187.39 393.381L1185.95 393.176C1186.06 392.778 1186.25 392.446 1186.51 392.179C1186.77 391.909 1187.09 391.707 1187.47 391.574C1187.85 391.438 1188.27 391.369 1188.72 391.369C1189.04 391.369 1189.35 391.406 1189.66 391.48C1189.98 391.554 1190.26 391.676 1190.52 391.847C1190.78 392.014 1190.99 392.243 1191.14 392.533C1191.3 392.822 1191.38 393.185 1191.38 393.619V398H1189.9V397.101H1189.85C1189.75 397.283 1189.62 397.453 1189.45 397.612C1189.28 397.768 1189.07 397.895 1188.82 397.991C1188.56 398.085 1188.27 398.132 1187.93 398.132ZM1188.33 396.999C1188.64 396.999 1188.9 396.937 1189.13 396.815C1189.36 396.69 1189.53 396.526 1189.66 396.321C1189.78 396.116 1189.84 395.893 1189.84 395.652V394.881C1189.8 394.92 1189.71 394.957 1189.6 394.991C1189.48 395.026 1189.36 395.055 1189.21 395.081C1189.07 395.107 1188.93 395.129 1188.79 395.149C1188.65 395.169 1188.53 395.186 1188.43 395.2C1188.2 395.232 1187.99 395.283 1187.81 395.354C1187.63 395.425 1187.49 395.524 1187.38 395.652C1187.28 395.777 1187.22 395.939 1187.22 396.138C1187.22 396.422 1187.33 396.636 1187.53 396.781C1187.74 396.926 1188.01 396.999 1188.33 396.999ZM1187.54 390.658L1186.61 390.636C1186.61 390.131 1186.74 389.734 1187 389.447C1187.26 389.161 1187.58 389.017 1187.96 389.017C1188.15 389.017 1188.31 389.048 1188.45 389.111C1188.58 389.17 1188.71 389.24 1188.82 389.32C1188.94 389.399 1189.05 389.47 1189.16 389.533C1189.27 389.592 1189.39 389.622 1189.53 389.622C1189.69 389.622 1189.82 389.561 1189.91 389.439C1190.01 389.317 1190.06 389.161 1190.06 388.97L1190.98 389.009C1190.97 389.517 1190.84 389.912 1190.58 390.193C1190.32 390.472 1190 390.612 1189.62 390.615C1189.41 390.618 1189.24 390.588 1189.1 390.526C1188.96 390.463 1188.84 390.392 1188.74 390.312C1188.63 390.233 1188.53 390.163 1188.42 390.104C1188.32 390.041 1188.2 390.01 1188.05 390.01C1187.9 390.01 1187.78 390.07 1187.68 390.189C1187.59 390.308 1187.54 390.464 1187.54 390.658ZM1195.79 398.128C1195.15 398.128 1194.6 397.987 1194.13 397.706C1193.66 397.425 1193.29 397.031 1193.04 396.526C1192.78 396.02 1192.65 395.429 1192.65 394.753C1192.65 394.077 1192.78 393.484 1193.04 392.976C1193.29 392.467 1193.66 392.072 1194.13 391.791C1194.6 391.51 1195.15 391.369 1195.79 391.369C1196.43 391.369 1196.98 391.51 1197.45 391.791C1197.92 392.072 1198.28 392.467 1198.54 392.976C1198.8 393.484 1198.92 394.077 1198.92 394.753C1198.92 395.429 1198.8 396.02 1198.54 396.526C1198.28 397.031 1197.92 397.425 1197.45 397.706C1196.98 397.987 1196.43 398.128 1195.79 398.128ZM1195.8 396.892C1196.14 396.892 1196.43 396.797 1196.67 396.607C1196.9 396.413 1197.07 396.155 1197.19 395.831C1197.3 395.507 1197.36 395.146 1197.36 394.749C1197.36 394.348 1197.3 393.986 1197.19 393.662C1197.07 393.335 1196.9 393.075 1196.67 392.882C1196.43 392.689 1196.14 392.592 1195.8 392.592C1195.44 392.592 1195.15 392.689 1194.91 392.882C1194.68 393.075 1194.5 393.335 1194.39 393.662C1194.27 393.986 1194.22 394.348 1194.22 394.749C1194.22 395.146 1194.27 395.507 1194.39 395.831C1194.5 396.155 1194.68 396.413 1194.91 396.607C1195.15 396.797 1195.44 396.892 1195.8 396.892Z" fill="white"/>
<path d="M1019.44 133H1017.75L1020.83 124.273H1022.78L1025.86 133H1024.17L1021.84 126.062H1021.77L1019.44 133ZM1019.5 129.578H1024.1V130.848H1019.5V129.578ZM1028.48 129.165V133H1026.94V126.455H1028.41V127.567H1028.49C1028.64 127.2 1028.88 126.909 1029.21 126.693C1029.54 126.477 1029.95 126.369 1030.44 126.369C1030.89 126.369 1031.29 126.466 1031.62 126.659C1031.96 126.852 1032.22 127.132 1032.4 127.499C1032.59 127.865 1032.68 128.31 1032.68 128.832V133H1031.14V129.071C1031.14 128.634 1031.03 128.291 1030.8 128.044C1030.57 127.797 1030.26 127.673 1029.86 127.673C1029.59 127.673 1029.35 127.733 1029.14 127.852C1028.94 127.969 1028.77 128.138 1028.65 128.359C1028.54 128.581 1028.48 128.849 1028.48 129.165ZM1036.13 133.132C1035.72 133.132 1035.34 133.058 1035.01 132.911C1034.68 132.76 1034.42 132.538 1034.23 132.246C1034.04 131.953 1033.94 131.592 1033.94 131.163C1033.94 130.794 1034.01 130.489 1034.15 130.247C1034.28 130.006 1034.47 129.812 1034.71 129.668C1034.94 129.523 1035.21 129.413 1035.5 129.339C1035.8 129.263 1036.11 129.207 1036.43 129.173C1036.81 129.134 1037.12 129.098 1037.36 129.067C1037.6 129.033 1037.77 128.982 1037.88 128.913C1037.99 128.842 1038.05 128.733 1038.05 128.585V128.56C1038.05 128.239 1037.95 127.99 1037.76 127.814C1037.57 127.638 1037.3 127.55 1036.94 127.55C1036.56 127.55 1036.26 127.632 1036.04 127.797C1035.82 127.962 1035.67 128.156 1035.6 128.381L1034.16 128.176C1034.27 127.778 1034.46 127.446 1034.72 127.179C1034.98 126.909 1035.3 126.707 1035.68 126.574C1036.06 126.438 1036.47 126.369 1036.93 126.369C1037.25 126.369 1037.56 126.406 1037.87 126.48C1038.18 126.554 1038.47 126.676 1038.73 126.847C1038.99 127.014 1039.19 127.243 1039.35 127.533C1039.51 127.822 1039.59 128.185 1039.59 128.619V133H1038.11V132.101H1038.06C1037.96 132.283 1037.83 132.453 1037.66 132.612C1037.49 132.768 1037.28 132.895 1037.02 132.991C1036.77 133.085 1036.47 133.132 1036.13 133.132ZM1036.53 131.999C1036.84 131.999 1037.11 131.937 1037.34 131.815C1037.57 131.69 1037.74 131.526 1037.86 131.321C1037.99 131.116 1038.05 130.893 1038.05 130.652V129.881C1038 129.92 1037.92 129.957 1037.8 129.991C1037.69 130.026 1037.56 130.055 1037.42 130.081C1037.28 130.107 1037.14 130.129 1037 130.149C1036.86 130.169 1036.74 130.186 1036.64 130.2C1036.41 130.232 1036.2 130.283 1036.02 130.354C1035.84 130.425 1035.69 130.524 1035.59 130.652C1035.48 130.777 1035.43 130.939 1035.43 131.138C1035.43 131.422 1035.53 131.636 1035.74 131.781C1035.95 131.926 1036.21 131.999 1036.53 131.999ZM1042.68 124.273V133H1041.14V124.273H1042.68ZM1044.27 133V126.455H1045.81V133H1044.27ZM1045.04 125.526C1044.8 125.526 1044.59 125.445 1044.41 125.283C1044.24 125.118 1044.15 124.92 1044.15 124.69C1044.15 124.457 1044.24 124.26 1044.41 124.098C1044.59 123.933 1044.8 123.851 1045.04 123.851C1045.29 123.851 1045.5 123.933 1045.68 124.098C1045.85 124.26 1045.94 124.457 1045.94 124.69C1045.94 124.92 1045.85 125.118 1045.68 125.283C1045.5 125.445 1045.29 125.526 1045.04 125.526ZM1052.57 128.185L1051.17 128.338C1051.13 128.196 1051.06 128.062 1050.96 127.938C1050.86 127.812 1050.73 127.712 1050.56 127.635C1050.4 127.558 1050.2 127.52 1049.96 127.52C1049.64 127.52 1049.37 127.589 1049.15 127.729C1048.93 127.868 1048.83 128.048 1048.83 128.27C1048.83 128.46 1048.9 128.615 1049.04 128.734C1049.18 128.854 1049.42 128.952 1049.75 129.028L1050.87 129.267C1051.49 129.401 1051.95 129.612 1052.25 129.902C1052.56 130.192 1052.71 130.571 1052.71 131.04C1052.71 131.452 1052.59 131.815 1052.35 132.131C1052.11 132.443 1051.79 132.687 1051.37 132.864C1050.94 133.04 1050.46 133.128 1049.92 133.128C1049.12 133.128 1048.47 132.96 1047.98 132.625C1047.49 132.287 1047.2 131.817 1047.11 131.214L1048.61 131.07C1048.68 131.365 1048.83 131.588 1049.05 131.739C1049.27 131.889 1049.56 131.964 1049.91 131.964C1050.28 131.964 1050.57 131.889 1050.79 131.739C1051.02 131.588 1051.13 131.402 1051.13 131.18C1051.13 130.993 1051.06 130.838 1050.91 130.716C1050.77 130.594 1050.55 130.5 1050.25 130.435L1049.13 130.2C1048.5 130.07 1048.04 129.849 1047.74 129.54C1047.44 129.227 1047.29 128.832 1047.29 128.355C1047.29 127.952 1047.4 127.602 1047.62 127.307C1047.84 127.009 1048.16 126.778 1048.55 126.616C1048.95 126.452 1049.42 126.369 1049.94 126.369C1050.7 126.369 1051.31 126.533 1051.75 126.859C1052.19 127.186 1052.47 127.628 1052.57 128.185ZM1055.87 133.132C1055.45 133.132 1055.08 133.058 1054.75 132.911C1054.42 132.76 1054.16 132.538 1053.96 132.246C1053.77 131.953 1053.68 131.592 1053.68 131.163C1053.68 130.794 1053.75 130.489 1053.88 130.247C1054.02 130.006 1054.2 129.812 1054.44 129.668C1054.68 129.523 1054.94 129.413 1055.24 129.339C1055.54 129.263 1055.84 129.207 1056.16 129.173C1056.55 129.134 1056.86 129.098 1057.09 129.067C1057.33 129.033 1057.51 128.982 1057.61 128.913C1057.73 128.842 1057.78 128.733 1057.78 128.585V128.56C1057.78 128.239 1057.69 127.99 1057.5 127.814C1057.31 127.638 1057.03 127.55 1056.67 127.55C1056.3 127.55 1056 127.632 1055.77 127.797C1055.56 127.962 1055.41 128.156 1055.33 128.381L1053.89 128.176C1054 127.778 1054.19 127.446 1054.45 127.179C1054.71 126.909 1055.03 126.707 1055.41 126.574C1055.79 126.438 1056.21 126.369 1056.66 126.369C1056.98 126.369 1057.29 126.406 1057.61 126.48C1057.92 126.554 1058.2 126.676 1058.46 126.847C1058.72 127.014 1058.93 127.243 1059.08 127.533C1059.24 127.822 1059.32 128.185 1059.32 128.619V133H1057.84V132.101H1057.79C1057.7 132.283 1057.56 132.453 1057.39 132.612C1057.23 132.768 1057.01 132.895 1056.76 132.991C1056.51 133.085 1056.21 133.132 1055.87 133.132ZM1056.27 131.999C1056.58 131.999 1056.85 131.937 1057.07 131.815C1057.3 131.69 1057.48 131.526 1057.6 131.321C1057.72 131.116 1057.79 130.893 1057.79 130.652V129.881C1057.74 129.92 1057.65 129.957 1057.54 129.991C1057.42 130.026 1057.3 130.055 1057.15 130.081C1057.01 130.107 1056.87 130.129 1056.73 130.149C1056.59 130.169 1056.47 130.186 1056.37 130.2C1056.14 130.232 1055.93 130.283 1055.75 130.354C1055.57 130.425 1055.43 130.524 1055.32 130.652C1055.22 130.777 1055.16 130.939 1055.16 131.138C1055.16 131.422 1055.27 131.636 1055.48 131.781C1055.68 131.926 1055.95 131.999 1056.27 131.999ZM1062.42 129.165V133H1060.87V126.455H1062.35V127.567H1062.43C1062.58 127.2 1062.82 126.909 1063.15 126.693C1063.48 126.477 1063.89 126.369 1064.38 126.369C1064.83 126.369 1065.22 126.466 1065.56 126.659C1065.9 126.852 1066.16 127.132 1066.34 127.499C1066.53 127.865 1066.62 128.31 1066.62 128.832V133H1065.08V129.071C1065.08 128.634 1064.96 128.291 1064.74 128.044C1064.51 127.797 1064.2 127.673 1063.8 127.673C1063.53 127.673 1063.29 127.733 1063.08 127.852C1062.87 127.969 1062.71 128.138 1062.59 128.359C1062.48 128.581 1062.42 128.849 1062.42 129.165ZM1070.62 133.115C1070.1 133.115 1069.64 132.983 1069.24 132.719C1068.83 132.455 1068.51 132.071 1068.27 131.568C1068.04 131.065 1067.92 130.455 1067.92 129.736C1067.92 129.009 1068.04 128.395 1068.28 127.895C1068.52 127.392 1068.84 127.013 1069.25 126.757C1069.66 126.499 1070.12 126.369 1070.62 126.369C1071 126.369 1071.32 126.435 1071.57 126.565C1071.81 126.693 1072.01 126.848 1072.15 127.03C1072.3 127.209 1072.41 127.378 1072.49 127.537H1072.56V124.273H1074.1V133H1072.58V131.969H1072.49C1072.41 132.128 1072.3 132.297 1072.15 132.476C1072 132.652 1071.8 132.803 1071.55 132.928C1071.3 133.053 1070.99 133.115 1070.62 133.115ZM1071.05 131.849C1071.37 131.849 1071.65 131.761 1071.88 131.585C1072.11 131.406 1072.29 131.158 1072.41 130.839C1072.53 130.521 1072.58 130.151 1072.58 129.727C1072.58 129.304 1072.53 128.936 1072.41 128.624C1072.29 128.311 1072.12 128.068 1071.89 127.895C1071.66 127.722 1071.38 127.635 1071.05 127.635C1070.7 127.635 1070.42 127.724 1070.19 127.903C1069.96 128.082 1069.78 128.33 1069.67 128.645C1069.55 128.96 1069.49 129.321 1069.49 129.727C1069.49 130.136 1069.55 130.501 1069.67 130.822C1069.79 131.141 1069.96 131.392 1070.19 131.577C1070.42 131.759 1070.71 131.849 1071.05 131.849ZM1078.6 133.128C1077.96 133.128 1077.41 132.987 1076.94 132.706C1076.47 132.425 1076.11 132.031 1075.85 131.526C1075.59 131.02 1075.46 130.429 1075.46 129.753C1075.46 129.077 1075.59 128.484 1075.85 127.976C1076.11 127.467 1076.47 127.072 1076.94 126.791C1077.41 126.51 1077.96 126.369 1078.6 126.369C1079.24 126.369 1079.79 126.51 1080.26 126.791C1080.73 127.072 1081.09 127.467 1081.35 127.976C1081.61 128.484 1081.74 129.077 1081.74 129.753C1081.74 130.429 1081.61 131.02 1081.35 131.526C1081.09 132.031 1080.73 132.425 1080.26 132.706C1079.79 132.987 1079.24 133.128 1078.6 133.128ZM1078.61 131.892C1078.96 131.892 1079.25 131.797 1079.48 131.607C1079.71 131.413 1079.88 131.155 1080 130.831C1080.12 130.507 1080.17 130.146 1080.17 129.749C1080.17 129.348 1080.12 128.986 1080 128.662C1079.88 128.335 1079.71 128.075 1079.48 127.882C1079.25 127.689 1078.96 127.592 1078.61 127.592C1078.25 127.592 1077.96 127.689 1077.72 127.882C1077.49 128.075 1077.32 128.335 1077.2 128.662C1077.09 128.986 1077.03 129.348 1077.03 129.749C1077.03 130.146 1077.09 130.507 1077.2 130.831C1077.32 131.155 1077.49 131.413 1077.72 131.607C1077.96 131.797 1078.25 131.892 1078.61 131.892ZM1087.26 124.273L1089.53 131.142H1089.62L1091.89 124.273H1093.63L1090.55 133H1088.6L1085.52 124.273H1087.26ZM1096.9 133.128C1096.25 133.128 1095.68 132.991 1095.2 132.719C1094.73 132.443 1094.36 132.054 1094.11 131.551C1093.85 131.045 1093.72 130.45 1093.72 129.766C1093.72 129.092 1093.85 128.501 1094.11 127.993C1094.36 127.482 1094.73 127.084 1095.19 126.8C1095.65 126.513 1096.2 126.369 1096.82 126.369C1097.22 126.369 1097.6 126.435 1097.96 126.565C1098.32 126.693 1098.64 126.892 1098.92 127.162C1099.2 127.432 1099.41 127.776 1099.57 128.193C1099.73 128.608 1099.81 129.102 1099.81 129.676V130.149H1094.45V129.109H1098.33C1098.33 128.814 1098.27 128.551 1098.14 128.321C1098.02 128.088 1097.84 127.905 1097.62 127.771C1097.4 127.638 1097.14 127.571 1096.84 127.571C1096.53 127.571 1096.25 127.648 1096.01 127.801C1095.77 127.952 1095.59 128.151 1095.45 128.398C1095.32 128.642 1095.25 128.911 1095.25 129.203V130.111C1095.25 130.491 1095.32 130.818 1095.46 131.091C1095.6 131.361 1095.79 131.568 1096.04 131.713C1096.29 131.855 1096.59 131.926 1096.92 131.926C1097.15 131.926 1097.35 131.895 1097.53 131.832C1097.71 131.767 1097.87 131.672 1098 131.547C1098.14 131.422 1098.24 131.267 1098.31 131.082L1099.75 131.244C1099.66 131.625 1099.48 131.957 1099.23 132.241C1098.98 132.523 1098.65 132.741 1098.26 132.898C1097.86 133.051 1097.41 133.128 1096.9 133.128ZM1102.66 129.165V133H1101.12V126.455H1102.59V127.567H1102.67C1102.82 127.2 1103.06 126.909 1103.39 126.693C1103.72 126.477 1104.13 126.369 1104.62 126.369C1105.07 126.369 1105.46 126.466 1105.8 126.659C1106.14 126.852 1106.4 127.132 1106.58 127.499C1106.77 127.865 1106.86 128.31 1106.86 128.832V133H1105.32V129.071C1105.32 128.634 1105.2 128.291 1104.98 128.044C1104.75 127.797 1104.44 127.673 1104.04 127.673C1103.77 127.673 1103.53 127.733 1103.32 127.852C1103.12 127.969 1102.95 128.138 1102.83 128.359C1102.72 128.581 1102.66 128.849 1102.66 129.165ZM1110.86 133.115C1110.34 133.115 1109.88 132.983 1109.48 132.719C1109.07 132.455 1108.75 132.071 1108.51 131.568C1108.28 131.065 1108.16 130.455 1108.16 129.736C1108.16 129.009 1108.28 128.395 1108.52 127.895C1108.76 127.392 1109.09 127.013 1109.49 126.757C1109.9 126.499 1110.36 126.369 1110.86 126.369C1111.25 126.369 1111.56 126.435 1111.81 126.565C1112.06 126.693 1112.25 126.848 1112.4 127.03C1112.54 127.209 1112.65 127.378 1112.73 127.537H1112.8V124.273H1114.34V133H1112.83V131.969H1112.73C1112.65 132.128 1112.54 132.297 1112.39 132.476C1112.24 132.652 1112.04 132.803 1111.79 132.928C1111.54 133.053 1111.23 133.115 1110.86 133.115ZM1111.29 131.849C1111.62 131.849 1111.89 131.761 1112.12 131.585C1112.35 131.406 1112.53 131.158 1112.65 130.839C1112.77 130.521 1112.83 130.151 1112.83 129.727C1112.83 129.304 1112.77 128.936 1112.65 128.624C1112.53 128.311 1112.36 128.068 1112.13 127.895C1111.9 127.722 1111.62 127.635 1111.29 127.635C1110.94 127.635 1110.66 127.724 1110.43 127.903C1110.2 128.082 1110.02 128.33 1109.91 128.645C1109.79 128.96 1109.73 129.321 1109.73 129.727C1109.73 130.136 1109.79 130.501 1109.91 130.822C1110.03 131.141 1110.2 131.392 1110.43 131.577C1110.67 131.759 1110.95 131.849 1111.29 131.849ZM1117.87 133.132C1117.46 133.132 1117.08 133.058 1116.75 132.911C1116.42 132.76 1116.16 132.538 1115.97 132.246C1115.78 131.953 1115.68 131.592 1115.68 131.163C1115.68 130.794 1115.75 130.489 1115.89 130.247C1116.02 130.006 1116.21 129.812 1116.44 129.668C1116.68 129.523 1116.95 129.413 1117.24 129.339C1117.54 129.263 1117.85 129.207 1118.17 129.173C1118.55 129.134 1118.86 129.098 1119.1 129.067C1119.34 129.033 1119.51 128.982 1119.62 128.913C1119.73 128.842 1119.78 128.733 1119.78 128.585V128.56C1119.78 128.239 1119.69 127.99 1119.5 127.814C1119.31 127.638 1119.03 127.55 1118.68 127.55C1118.3 127.55 1118 127.632 1117.78 127.797C1117.56 127.962 1117.41 128.156 1117.33 128.381L1115.89 128.176C1116.01 127.778 1116.2 127.446 1116.46 127.179C1116.72 126.909 1117.04 126.707 1117.42 126.574C1117.79 126.438 1118.21 126.369 1118.67 126.369C1118.98 126.369 1119.3 126.406 1119.61 126.48C1119.92 126.554 1120.21 126.676 1120.47 126.847C1120.73 127.014 1120.93 127.243 1121.09 127.533C1121.25 127.822 1121.33 128.185 1121.33 128.619V133H1119.84V132.101H1119.79C1119.7 132.283 1119.57 132.453 1119.4 132.612C1119.23 132.768 1119.02 132.895 1118.76 132.991C1118.51 133.085 1118.21 133.132 1117.87 133.132ZM1118.27 131.999C1118.58 131.999 1118.85 131.937 1119.08 131.815C1119.3 131.69 1119.48 131.526 1119.6 131.321C1119.73 131.116 1119.79 130.893 1119.79 130.652V129.881C1119.74 129.92 1119.66 129.957 1119.54 129.991C1119.43 130.026 1119.3 130.055 1119.16 130.081C1119.02 130.107 1118.88 130.129 1118.74 130.149C1118.6 130.169 1118.48 130.186 1118.37 130.2C1118.14 130.232 1117.94 130.283 1117.76 130.354C1117.57 130.425 1117.43 130.524 1117.33 130.652C1117.22 130.777 1117.17 130.939 1117.17 131.138C1117.17 131.422 1117.27 131.636 1117.48 131.781C1117.69 131.926 1117.95 131.999 1118.27 131.999ZM1128.05 128.185L1126.65 128.338C1126.61 128.196 1126.54 128.062 1126.44 127.938C1126.34 127.812 1126.21 127.712 1126.04 127.635C1125.88 127.558 1125.68 127.52 1125.44 127.52C1125.12 127.52 1124.85 127.589 1124.63 127.729C1124.41 127.868 1124.31 128.048 1124.31 128.27C1124.31 128.46 1124.38 128.615 1124.52 128.734C1124.66 128.854 1124.9 128.952 1125.24 129.028L1126.35 129.267C1126.97 129.401 1127.43 129.612 1127.73 129.902C1128.04 130.192 1128.19 130.571 1128.19 131.04C1128.19 131.452 1128.07 131.815 1127.83 132.131C1127.59 132.443 1127.27 132.687 1126.85 132.864C1126.43 133.04 1125.94 133.128 1125.4 133.128C1124.6 133.128 1123.95 132.96 1123.46 132.625C1122.97 132.287 1122.68 131.817 1122.59 131.214L1124.09 131.07C1124.16 131.365 1124.31 131.588 1124.53 131.739C1124.75 131.889 1125.04 131.964 1125.39 131.964C1125.76 131.964 1126.05 131.889 1126.27 131.739C1126.5 131.588 1126.61 131.402 1126.61 131.18C1126.61 130.993 1126.54 130.838 1126.39 130.716C1126.25 130.594 1126.03 130.5 1125.73 130.435L1124.61 130.2C1123.99 130.07 1123.52 129.849 1123.22 129.54C1122.92 129.227 1122.77 128.832 1122.77 128.355C1122.77 127.952 1122.88 127.602 1123.1 127.307C1123.32 127.009 1123.64 126.778 1124.03 126.616C1124.43 126.452 1124.9 126.369 1125.42 126.369C1126.19 126.369 1126.79 126.533 1127.23 126.859C1127.67 127.186 1127.95 127.628 1128.05 128.185ZM1132.51 133V124.273H1134.09V131.675H1137.93V133H1132.51ZM1139.24 133V126.455H1140.78V133H1139.24ZM1140.01 125.526C1139.77 125.526 1139.56 125.445 1139.38 125.283C1139.21 125.118 1139.12 124.92 1139.12 124.69C1139.12 124.457 1139.21 124.26 1139.38 124.098C1139.56 123.933 1139.77 123.851 1140.01 123.851C1140.26 123.851 1140.47 123.933 1140.64 124.098C1140.82 124.26 1140.91 124.457 1140.91 124.69C1140.91 124.92 1140.82 125.118 1140.64 125.283C1140.47 125.445 1140.26 125.526 1140.01 125.526ZM1146.73 135.455V131.969H1146.67C1146.59 132.128 1146.48 132.297 1146.33 132.476C1146.18 132.652 1145.98 132.803 1145.73 132.928C1145.48 133.053 1145.17 133.115 1144.8 133.115C1144.28 133.115 1143.82 132.983 1143.42 132.719C1143.01 132.455 1142.69 132.071 1142.45 131.568C1142.22 131.065 1142.1 130.455 1142.1 129.736C1142.1 129.009 1142.22 128.395 1142.46 127.895C1142.7 127.392 1143.02 127.013 1143.43 126.757C1143.84 126.499 1144.3 126.369 1144.8 126.369C1145.18 126.369 1145.5 126.435 1145.75 126.565C1145.99 126.693 1146.19 126.848 1146.33 127.03C1146.48 127.209 1146.59 127.378 1146.67 127.537H1146.76V126.455H1148.28V135.455H1146.73ZM1145.23 131.849C1145.55 131.849 1145.83 131.761 1146.06 131.585C1146.29 131.406 1146.47 131.158 1146.59 130.839C1146.7 130.521 1146.76 130.151 1146.76 129.727C1146.76 129.304 1146.7 128.936 1146.59 128.624C1146.47 128.311 1146.3 128.068 1146.07 127.895C1145.84 127.722 1145.56 127.635 1145.23 127.635C1144.88 127.635 1144.6 127.724 1144.37 127.903C1144.14 128.082 1143.96 128.33 1143.85 128.645C1143.73 128.96 1143.67 129.321 1143.67 129.727C1143.67 130.136 1143.73 130.501 1143.85 130.822C1143.96 131.141 1144.14 131.392 1144.37 131.577C1144.6 131.759 1144.89 131.849 1145.23 131.849ZM1154.04 130.247V126.455H1155.58V133H1154.09V131.837H1154.02C1153.87 132.203 1153.63 132.503 1153.29 132.736C1152.95 132.969 1152.54 133.085 1152.05 133.085C1151.62 133.085 1151.24 132.99 1150.91 132.8C1150.58 132.607 1150.33 132.327 1150.14 131.96C1149.96 131.591 1149.87 131.145 1149.87 130.622V126.455H1151.41V130.384C1151.41 130.798 1151.52 131.128 1151.75 131.372C1151.98 131.616 1152.28 131.739 1152.65 131.739C1152.87 131.739 1153.09 131.683 1153.31 131.572C1153.52 131.462 1153.69 131.297 1153.83 131.078C1153.97 130.857 1154.04 130.58 1154.04 130.247ZM1157.17 133V126.455H1158.71V133H1157.17ZM1157.94 125.526C1157.7 125.526 1157.49 125.445 1157.31 125.283C1157.14 125.118 1157.05 124.92 1157.05 124.69C1157.05 124.457 1157.14 124.26 1157.31 124.098C1157.49 123.933 1157.7 123.851 1157.94 123.851C1158.19 123.851 1158.4 123.933 1158.57 124.098C1158.75 124.26 1158.84 124.457 1158.84 124.69C1158.84 124.92 1158.75 125.118 1158.57 125.283C1158.4 125.445 1158.19 125.526 1157.94 125.526ZM1162.73 133.115C1162.21 133.115 1161.75 132.983 1161.34 132.719C1160.94 132.455 1160.62 132.071 1160.38 131.568C1160.15 131.065 1160.03 130.455 1160.03 129.736C1160.03 129.009 1160.15 128.395 1160.39 127.895C1160.63 127.392 1160.95 127.013 1161.36 126.757C1161.77 126.499 1162.23 126.369 1162.73 126.369C1163.11 126.369 1163.43 126.435 1163.68 126.565C1163.92 126.693 1164.12 126.848 1164.26 127.03C1164.41 127.209 1164.52 127.378 1164.6 127.537H1164.66V124.273H1166.21V133H1164.69V131.969H1164.6C1164.52 132.128 1164.41 132.297 1164.26 132.476C1164.1 132.652 1163.91 132.803 1163.66 132.928C1163.41 133.053 1163.1 133.115 1162.73 133.115ZM1163.16 131.849C1163.48 131.849 1163.76 131.761 1163.99 131.585C1164.22 131.406 1164.4 131.158 1164.52 130.839C1164.63 130.521 1164.69 130.151 1164.69 129.727C1164.69 129.304 1164.63 128.936 1164.52 128.624C1164.4 128.311 1164.23 128.068 1164 127.895C1163.77 127.722 1163.49 127.635 1163.16 127.635C1162.81 127.635 1162.53 127.724 1162.3 127.903C1162.06 128.082 1161.89 128.33 1161.78 128.645C1161.66 128.96 1161.6 129.321 1161.6 129.727C1161.6 130.136 1161.66 130.501 1161.78 130.822C1161.89 131.141 1162.07 131.392 1162.3 131.577C1162.53 131.759 1162.82 131.849 1163.16 131.849ZM1169.74 133.132C1169.32 133.132 1168.95 133.058 1168.62 132.911C1168.29 132.76 1168.03 132.538 1167.83 132.246C1167.64 131.953 1167.55 131.592 1167.55 131.163C1167.55 130.794 1167.62 130.489 1167.75 130.247C1167.89 130.006 1168.08 129.812 1168.31 129.668C1168.55 129.523 1168.81 129.413 1169.11 129.339C1169.41 129.263 1169.71 129.207 1170.03 129.173C1170.42 129.134 1170.73 129.098 1170.97 129.067C1171.2 129.033 1171.38 128.982 1171.49 128.913C1171.6 128.842 1171.65 128.733 1171.65 128.585V128.56C1171.65 128.239 1171.56 127.99 1171.37 127.814C1171.18 127.638 1170.9 127.55 1170.54 127.55C1170.17 127.55 1169.87 127.632 1169.64 127.797C1169.43 127.962 1169.28 128.156 1169.2 128.381L1167.76 128.176C1167.88 127.778 1168.06 127.446 1168.32 127.179C1168.59 126.909 1168.9 126.707 1169.28 126.574C1169.66 126.438 1170.08 126.369 1170.54 126.369C1170.85 126.369 1171.16 126.406 1171.48 126.48C1171.79 126.554 1172.08 126.676 1172.33 126.847C1172.59 127.014 1172.8 127.243 1172.96 127.533C1173.12 127.822 1173.19 128.185 1173.19 128.619V133H1171.71V132.101H1171.66C1171.57 132.283 1171.43 132.453 1171.26 132.612C1171.1 132.768 1170.88 132.895 1170.63 132.991C1170.38 133.085 1170.08 133.132 1169.74 133.132ZM1170.14 131.999C1170.45 131.999 1170.72 131.937 1170.94 131.815C1171.17 131.69 1171.35 131.526 1171.47 131.321C1171.59 131.116 1171.66 130.893 1171.66 130.652V129.881C1171.61 129.92 1171.53 129.957 1171.41 129.991C1171.3 130.026 1171.17 130.055 1171.03 130.081C1170.88 130.107 1170.74 130.129 1170.6 130.149C1170.46 130.169 1170.34 130.186 1170.24 130.2C1170.01 130.232 1169.81 130.283 1169.62 130.354C1169.44 130.425 1169.3 130.524 1169.19 130.652C1169.09 130.777 1169.04 130.939 1169.04 131.138C1169.04 131.422 1169.14 131.636 1169.35 131.781C1169.55 131.926 1169.82 131.999 1170.14 131.999ZM1179.92 128.185L1178.51 128.338C1178.47 128.196 1178.4 128.062 1178.3 127.938C1178.21 127.812 1178.08 127.712 1177.91 127.635C1177.75 127.558 1177.55 127.52 1177.31 127.52C1176.99 127.52 1176.72 127.589 1176.5 127.729C1176.28 127.868 1176.17 128.048 1176.18 128.27C1176.17 128.46 1176.24 128.615 1176.39 128.734C1176.53 128.854 1176.77 128.952 1177.1 129.028L1178.22 129.267C1178.84 129.401 1179.3 129.612 1179.6 129.902C1179.9 130.192 1180.06 130.571 1180.06 131.04C1180.06 131.452 1179.94 131.815 1179.7 132.131C1179.46 132.443 1179.13 132.687 1178.71 132.864C1178.29 133.04 1177.81 133.128 1177.26 133.128C1176.46 133.128 1175.82 132.96 1175.33 132.625C1174.84 132.287 1174.55 131.817 1174.46 131.214L1175.96 131.07C1176.03 131.365 1176.17 131.588 1176.39 131.739C1176.62 131.889 1176.9 131.964 1177.26 131.964C1177.63 131.964 1177.92 131.889 1178.14 131.739C1178.37 131.588 1178.48 131.402 1178.48 131.18C1178.48 130.993 1178.41 130.838 1178.26 130.716C1178.12 130.594 1177.9 130.5 1177.6 130.435L1176.48 130.2C1175.85 130.07 1175.39 129.849 1175.09 129.54C1174.79 129.227 1174.64 128.832 1174.64 128.355C1174.64 127.952 1174.75 127.602 1174.97 127.307C1175.19 127.009 1175.5 126.778 1175.9 126.616C1176.3 126.452 1176.76 126.369 1177.29 126.369C1178.05 126.369 1178.66 126.533 1179.1 126.859C1179.54 127.186 1179.81 127.628 1179.92 128.185Z" fill="white"/>
<path d="M1056.09 493V484.273H1059.36C1060.03 484.273 1060.6 484.389 1061.05 484.622C1061.51 484.855 1061.85 485.182 1062.09 485.602C1062.32 486.02 1062.44 486.507 1062.44 487.064C1062.44 487.624 1062.32 488.109 1062.08 488.521C1061.85 488.93 1061.5 489.247 1061.04 489.472C1060.58 489.693 1060.01 489.804 1059.34 489.804H1057.01V488.491H1059.13C1059.52 488.491 1059.84 488.437 1060.09 488.33C1060.34 488.219 1060.53 488.058 1060.65 487.848C1060.77 487.635 1060.83 487.374 1060.83 487.064C1060.83 486.754 1060.77 486.49 1060.65 486.271C1060.52 486.05 1060.34 485.882 1060.09 485.768C1059.84 485.652 1059.52 485.594 1059.12 485.594H1057.67V493H1056.09ZM1060.6 489.045L1062.76 493H1061L1058.87 489.045H1060.6ZM1066.63 493.128C1065.98 493.128 1065.41 492.991 1064.93 492.719C1064.46 492.443 1064.09 492.054 1063.84 491.551C1063.58 491.045 1063.45 490.45 1063.45 489.766C1063.45 489.092 1063.58 488.501 1063.84 487.993C1064.09 487.482 1064.46 487.084 1064.92 486.8C1065.38 486.513 1065.93 486.369 1066.55 486.369C1066.95 486.369 1067.33 486.435 1067.69 486.565C1068.05 486.693 1068.37 486.892 1068.65 487.162C1068.93 487.432 1069.14 487.776 1069.3 488.193C1069.46 488.608 1069.54 489.102 1069.54 489.676V490.149H1064.18V489.109H1068.06C1068.06 488.814 1068 488.551 1067.87 488.321C1067.75 488.088 1067.57 487.905 1067.35 487.771C1067.13 487.638 1066.87 487.571 1066.57 487.571C1066.26 487.571 1065.98 487.648 1065.74 487.801C1065.5 487.952 1065.32 488.151 1065.18 488.398C1065.05 488.642 1064.99 488.911 1064.98 489.203V490.111C1064.98 490.491 1065.05 490.818 1065.19 491.091C1065.33 491.361 1065.53 491.568 1065.78 491.713C1066.03 491.855 1066.32 491.926 1066.65 491.926C1066.88 491.926 1067.08 491.895 1067.26 491.832C1067.44 491.767 1067.6 491.672 1067.74 491.547C1067.87 491.422 1067.97 491.267 1068.04 491.082L1069.48 491.244C1069.39 491.625 1069.21 491.957 1068.96 492.241C1068.71 492.523 1068.38 492.741 1067.99 492.898C1067.59 493.051 1067.14 493.128 1066.63 493.128ZM1076.02 488.185L1074.61 488.338C1074.57 488.196 1074.5 488.062 1074.41 487.938C1074.31 487.812 1074.18 487.712 1074.01 487.635C1073.85 487.558 1073.65 487.52 1073.41 487.52C1073.09 487.52 1072.82 487.589 1072.6 487.729C1072.38 487.868 1072.28 488.048 1072.28 488.27C1072.28 488.46 1072.35 488.615 1072.49 488.734C1072.63 488.854 1072.87 488.952 1073.2 489.028L1074.32 489.267C1074.94 489.401 1075.4 489.612 1075.7 489.902C1076 490.192 1076.16 490.571 1076.16 491.04C1076.16 491.452 1076.04 491.815 1075.8 492.131C1075.56 492.443 1075.24 492.687 1074.81 492.864C1074.39 493.04 1073.91 493.128 1073.37 493.128C1072.56 493.128 1071.92 492.96 1071.43 492.625C1070.94 492.287 1070.65 491.817 1070.56 491.214L1072.06 491.07C1072.13 491.365 1072.27 491.588 1072.5 491.739C1072.72 491.889 1073.01 491.964 1073.36 491.964C1073.73 491.964 1074.02 491.889 1074.24 491.739C1074.47 491.588 1074.58 491.402 1074.58 491.18C1074.58 490.993 1074.51 490.838 1074.36 490.716C1074.22 490.594 1074 490.5 1073.7 490.435L1072.58 490.2C1071.95 490.07 1071.49 489.849 1071.19 489.54C1070.89 489.227 1070.74 488.832 1070.74 488.355C1070.74 487.952 1070.85 487.602 1071.07 487.307C1071.29 487.009 1071.6 486.778 1072 486.616C1072.4 486.452 1072.86 486.369 1073.39 486.369C1074.15 486.369 1074.76 486.533 1075.2 486.859C1075.64 487.186 1075.92 487.628 1076.02 488.185ZM1081.61 490.247V486.455H1083.15V493H1081.65V491.837H1081.58C1081.44 492.203 1081.19 492.503 1080.86 492.736C1080.52 492.969 1080.11 493.085 1079.62 493.085C1079.19 493.085 1078.81 492.99 1078.48 492.8C1078.15 492.607 1077.89 492.327 1077.71 491.96C1077.53 491.591 1077.43 491.145 1077.43 490.622V486.455H1078.98V490.384C1078.98 490.798 1079.09 491.128 1079.32 491.372C1079.54 491.616 1079.84 491.739 1080.21 491.739C1080.44 491.739 1080.66 491.683 1080.87 491.572C1081.09 491.462 1081.26 491.297 1081.4 491.078C1081.54 490.857 1081.61 490.58 1081.61 490.247ZM1084.73 493V486.455H1086.21V487.567H1086.29C1086.42 487.192 1086.65 486.899 1086.96 486.689C1087.28 486.476 1087.65 486.369 1088.09 486.369C1088.54 486.369 1088.91 486.477 1089.21 486.693C1089.52 486.906 1089.74 487.197 1089.86 487.567H1089.93C1090.07 487.203 1090.32 486.913 1090.66 486.697C1091.01 486.479 1091.42 486.369 1091.89 486.369C1092.5 486.369 1092.99 486.56 1093.37 486.94C1093.75 487.321 1093.94 487.876 1093.94 488.607V493H1092.39V488.845C1092.39 488.439 1092.28 488.142 1092.07 487.955C1091.85 487.764 1091.59 487.669 1091.28 487.669C1090.9 487.669 1090.61 487.786 1090.4 488.018C1090.19 488.249 1090.09 488.548 1090.09 488.918V493H1088.58V488.781C1088.58 488.443 1088.48 488.173 1088.27 487.972C1088.07 487.77 1087.81 487.669 1087.48 487.669C1087.26 487.669 1087.06 487.726 1086.87 487.839C1086.69 487.95 1086.55 488.108 1086.44 488.312C1086.33 488.514 1086.28 488.75 1086.28 489.02V493H1084.73ZM1098.36 493.128C1097.72 493.128 1097.17 492.987 1096.7 492.706C1096.23 492.425 1095.86 492.031 1095.61 491.526C1095.35 491.02 1095.22 490.429 1095.22 489.753C1095.22 489.077 1095.35 488.484 1095.61 487.976C1095.86 487.467 1096.23 487.072 1096.7 486.791C1097.17 486.51 1097.72 486.369 1098.36 486.369C1099 486.369 1099.55 486.51 1100.02 486.791C1100.49 487.072 1100.85 487.467 1101.11 487.976C1101.37 488.484 1101.5 489.077 1101.5 489.753C1101.5 490.429 1101.37 491.02 1101.11 491.526C1100.85 492.031 1100.49 492.425 1100.02 492.706C1099.55 492.987 1099 493.128 1098.36 493.128ZM1098.37 491.892C1098.71 491.892 1099 491.797 1099.24 491.607C1099.47 491.413 1099.64 491.155 1099.76 490.831C1099.87 490.507 1099.93 490.146 1099.93 489.749C1099.93 489.348 1099.87 488.986 1099.76 488.662C1099.64 488.335 1099.47 488.075 1099.24 487.882C1099 487.689 1098.71 487.592 1098.37 487.592C1098.01 487.592 1097.72 487.689 1097.48 487.882C1097.25 488.075 1097.07 488.335 1096.96 488.662C1096.84 488.986 1096.79 489.348 1096.79 489.749C1096.79 490.146 1096.84 490.507 1096.96 490.831C1097.07 491.155 1097.25 491.413 1097.48 491.607C1097.72 491.797 1098.01 491.892 1098.37 491.892ZM1105.78 495.455V486.455H1107.3V487.537H1107.39C1107.47 487.378 1107.58 487.209 1107.72 487.03C1107.87 486.848 1108.06 486.693 1108.31 486.565C1108.56 486.435 1108.87 486.369 1109.26 486.369C1109.76 486.369 1110.22 486.499 1110.63 486.757C1111.04 487.013 1111.36 487.392 1111.6 487.895C1111.84 488.395 1111.96 489.009 1111.96 489.736C1111.96 490.455 1111.84 491.065 1111.61 491.568C1111.37 492.071 1111.05 492.455 1110.64 492.719C1110.24 492.983 1109.78 493.115 1109.26 493.115C1108.89 493.115 1108.58 493.053 1108.33 492.928C1108.08 492.803 1107.88 492.652 1107.73 492.476C1107.58 492.297 1107.47 492.128 1107.39 491.969H1107.32V495.455H1105.78ZM1107.29 489.727C1107.29 490.151 1107.35 490.521 1107.47 490.839C1107.59 491.158 1107.77 491.406 1108 491.585C1108.23 491.761 1108.51 491.849 1108.83 491.849C1109.17 491.849 1109.46 491.759 1109.69 491.577C1109.92 491.392 1110.09 491.141 1110.21 490.822C1110.33 490.501 1110.39 490.136 1110.39 489.727C1110.39 489.321 1110.33 488.96 1110.21 488.645C1110.1 488.33 1109.92 488.082 1109.69 487.903C1109.46 487.724 1109.18 487.635 1108.83 487.635C1108.5 487.635 1108.22 487.722 1107.99 487.895C1107.76 488.068 1107.59 488.311 1107.47 488.624C1107.35 488.936 1107.29 489.304 1107.29 489.727ZM1115.16 493.132C1114.75 493.132 1114.38 493.058 1114.04 492.911C1113.71 492.76 1113.45 492.538 1113.26 492.246C1113.07 491.953 1112.97 491.592 1112.97 491.163C1112.97 490.794 1113.04 490.489 1113.18 490.247C1113.31 490.006 1113.5 489.812 1113.74 489.668C1113.97 489.523 1114.24 489.413 1114.53 489.339C1114.83 489.263 1115.14 489.207 1115.46 489.173C1115.84 489.134 1116.15 489.098 1116.39 489.067C1116.63 489.033 1116.8 488.982 1116.91 488.913C1117.02 488.842 1117.08 488.733 1117.08 488.585V488.56C1117.08 488.239 1116.98 487.99 1116.79 487.814C1116.6 487.638 1116.33 487.55 1115.97 487.55C1115.59 487.55 1115.29 487.632 1115.07 487.797C1114.85 487.962 1114.7 488.156 1114.63 488.381L1113.19 488.176C1113.3 487.778 1113.49 487.446 1113.75 487.179C1114.01 486.909 1114.33 486.707 1114.71 486.574C1115.09 486.438 1115.5 486.369 1115.96 486.369C1116.28 486.369 1116.59 486.406 1116.9 486.48C1117.22 486.554 1117.5 486.676 1117.76 486.847C1118.02 487.014 1118.23 487.243 1118.38 487.533C1118.54 487.822 1118.62 488.185 1118.62 488.619V493H1117.14V492.101H1117.09C1116.99 492.283 1116.86 492.453 1116.69 492.612C1116.52 492.768 1116.31 492.895 1116.06 492.991C1115.8 493.085 1115.51 493.132 1115.16 493.132ZM1115.56 491.999C1115.87 491.999 1116.14 491.937 1116.37 491.815C1116.6 491.69 1116.77 491.526 1116.89 491.321C1117.02 491.116 1117.08 490.893 1117.08 490.652V489.881C1117.03 489.92 1116.95 489.957 1116.83 489.991C1116.72 490.026 1116.59 490.055 1116.45 490.081C1116.31 490.107 1116.17 490.129 1116.03 490.149C1115.89 490.169 1115.77 490.186 1115.67 490.2C1115.44 490.232 1115.23 490.283 1115.05 490.354C1114.87 490.425 1114.72 490.524 1114.62 490.652C1114.51 490.777 1114.46 490.939 1114.46 491.138C1114.46 491.422 1114.56 491.636 1114.77 491.781C1114.98 491.926 1115.24 491.999 1115.56 491.999ZM1120.17 493V486.455H1121.67V487.545H1121.74C1121.85 487.168 1122.06 486.876 1122.35 486.672C1122.64 486.464 1122.98 486.361 1123.35 486.361C1123.44 486.361 1123.53 486.365 1123.64 486.374C1123.74 486.379 1123.83 486.389 1123.9 486.403V487.822C1123.84 487.8 1123.74 487.78 1123.59 487.763C1123.45 487.743 1123.32 487.733 1123.19 487.733C1122.91 487.733 1122.65 487.794 1122.43 487.916C1122.21 488.036 1122.03 488.202 1121.91 488.415C1121.78 488.628 1121.71 488.874 1121.71 489.152V493H1120.17ZM1127.56 493.128C1126.9 493.128 1126.33 492.991 1125.86 492.719C1125.38 492.443 1125.02 492.054 1124.76 491.551C1124.51 491.045 1124.38 490.45 1124.38 489.766C1124.38 489.092 1124.51 488.501 1124.76 487.993C1125.02 487.482 1125.38 487.084 1125.84 486.8C1126.31 486.513 1126.85 486.369 1127.48 486.369C1127.88 486.369 1128.26 486.435 1128.62 486.565C1128.98 486.693 1129.3 486.892 1129.57 487.162C1129.85 487.432 1130.07 487.776 1130.23 488.193C1130.39 488.608 1130.47 489.102 1130.47 489.676V490.149H1125.1V489.109H1128.99C1128.99 488.814 1128.92 488.551 1128.8 488.321C1128.67 488.088 1128.5 487.905 1128.27 487.771C1128.05 487.638 1127.79 487.571 1127.5 487.571C1127.18 487.571 1126.91 487.648 1126.67 487.801C1126.43 487.952 1126.24 488.151 1126.11 488.398C1125.98 488.642 1125.91 488.911 1125.91 489.203V490.111C1125.91 490.491 1125.98 490.818 1126.12 491.091C1126.26 491.361 1126.45 491.568 1126.7 491.713C1126.95 491.855 1127.24 491.926 1127.58 491.926C1127.8 491.926 1128.01 491.895 1128.19 491.832C1128.37 491.767 1128.53 491.672 1128.66 491.547C1128.79 491.422 1128.9 491.267 1128.96 491.082L1130.4 491.244C1130.31 491.625 1130.14 491.957 1129.88 492.241C1129.63 492.523 1129.31 492.741 1128.91 492.898C1128.52 493.051 1128.07 493.128 1127.56 493.128ZM1135.04 486.455V487.648H1131.28V486.455H1135.04ZM1132.21 484.886H1133.75V491.031C1133.75 491.239 1133.78 491.398 1133.84 491.509C1133.91 491.616 1133.99 491.69 1134.1 491.73C1134.2 491.77 1134.32 491.79 1134.45 491.79C1134.55 491.79 1134.63 491.783 1134.71 491.768C1134.8 491.754 1134.86 491.741 1134.9 491.73L1135.16 492.936C1135.08 492.964 1134.96 492.996 1134.81 493.03C1134.66 493.064 1134.47 493.084 1134.25 493.089C1133.87 493.101 1133.52 493.043 1133.21 492.915C1132.9 492.784 1132.65 492.582 1132.47 492.31C1132.29 492.037 1132.2 491.696 1132.21 491.287V484.886ZM1139.12 493.128C1138.48 493.128 1137.92 492.987 1137.45 492.706C1136.99 492.425 1136.62 492.031 1136.36 491.526C1136.11 491.02 1135.98 490.429 1135.98 489.753C1135.98 489.077 1136.11 488.484 1136.36 487.976C1136.62 487.467 1136.99 487.072 1137.45 486.791C1137.92 486.51 1138.48 486.369 1139.12 486.369C1139.76 486.369 1140.31 486.51 1140.78 486.791C1141.25 487.072 1141.61 487.467 1141.87 487.976C1142.12 488.484 1142.25 489.077 1142.25 489.753C1142.25 490.429 1142.12 491.02 1141.87 491.526C1141.61 492.031 1141.25 492.425 1140.78 492.706C1140.31 492.987 1139.76 493.128 1139.12 493.128ZM1139.12 491.892C1139.47 491.892 1139.76 491.797 1139.99 491.607C1140.23 491.413 1140.4 491.155 1140.51 490.831C1140.63 490.507 1140.69 490.146 1140.69 489.749C1140.69 489.348 1140.63 488.986 1140.51 488.662C1140.4 488.335 1140.23 488.075 1139.99 487.882C1139.76 487.689 1139.47 487.592 1139.12 487.592C1138.77 487.592 1138.47 487.689 1138.24 487.882C1138.01 488.075 1137.83 488.335 1137.71 488.662C1137.6 488.986 1137.54 489.348 1137.54 489.749C1137.54 490.146 1137.6 490.507 1137.71 490.831C1137.83 491.155 1138.01 491.413 1138.24 491.607C1138.47 491.797 1138.77 491.892 1139.12 491.892Z" fill="white"/>
<defs>
<linearGradient id="paint0_linear_1_11" x1="0" y1="0" x2="1261.5" y2="696" gradientUnits="userSpaceOnUse">
<stop stop-color="#17282F"/>
<stop offset="1" stop-color="#497F95"/>
</linearGradient>
</defs>
</svg>
