<svg width="1280" height="720" viewBox="0 0 1280 720" fill="none" xmlns="http://www.w3.org/2000/svg">
<rect width="1280" height="720" fill="url(#paint0_linear_1_11)"/>
<path d="M20 25C20 22.2386 22.2386 20 25 20H1251.17C1255.06 20 1257.46 24.2399 1255.46 27.5725L1238.84 55.2743C1233.05 64.91 1230 75.9359 1230 87.173V190.5V360V523.5V632.827C1230 644.064 1233.05 655.09 1238.84 664.726L1255.46 692.428C1257.46 695.76 1255.06 700 1251.17 700H25C22.2386 700 20 697.761 20 695V25Z" fill="#E5EEEE"/>
<mask id="mask0_1_11" style="mask-type:alpha" maskUnits="userSpaceOnUse" x="40" y="43" width="80" height="40">
<path d="M54.2684 48.6029V54.1944H55.8538H57.4391V48.6029V43.0114H55.8538H54.2684V48.6029Z" fill="#17282F"/>
<path d="M61.8295 48.6029V54.1944H64.9999L65.0244 51.8785L65.0609 49.5629L68.7077 57.7299C70.7193 62.214 73.0736 67.4777 73.9387 69.4088L75.5249 72.9443H77.2191C78.793 72.9443 78.9267 72.9332 78.8654 72.7412C78.8289 72.6392 75.9146 66.0889 72.3779 58.2042C68.8414 50.3081 65.8658 43.6672 65.768 43.43L65.5852 43.0114H61.8295V48.6029Z" fill="#17282F"/>
<path d="M82.316 48.6029V54.1944H85.4867L85.5109 51.8558L85.5477 49.5174L90.7912 61.2313L96.0231 72.9443H97.7053C98.6326 72.9443 99.3884 72.8991 99.3884 72.8434C99.3884 72.7878 96.4021 66.0661 92.7564 57.9111L86.1098 43.0682L84.2196 43.0341L82.316 43V48.6029Z" fill="#17282F"/>
<path d="M102.561 48.6029V54.1944H105.731V45.9373L109.427 45.9706L112.091 45.995C112.77 46.0016 113.439 46.1478 114.049 46.423C117.768 48.1399 117.707 52.9066 113.926 54.5665L113.109 54.9289L102.659 54.9857L92.2073 55.0425L92.8417 56.4552L93.4857 57.8668H113.351L114.437 57.5387C116.913 56.7829 118.706 55.122 119.583 52.7834C119.888 51.9822 119.925 51.7226 119.925 50.4686C119.913 49.2473 119.876 48.9323 119.596 48.1416C118.939 46.2756 117.426 44.6723 115.561 43.8021C113.914 43.0568 113.549 43.0114 107.719 43.0114H102.561V48.6029Z" fill="#17282F"/>
<path d="M54.2684 56.4532V57.9216H68.0487L67.8172 57.3791C67.6835 57.0854 67.403 56.4418 67.1714 55.9448L66.7563 55.0425L60.514 55.0075L54.2684 54.9857V56.4532Z" fill="#17282F"/>
<path d="M71.7318 55.0865C71.7563 55.1433 72.0491 55.798 72.3785 56.5546L72.9875 57.9219H80.7687C85.3171 57.9219 88.5364 57.8764 88.5119 57.8199C88.4997 57.7631 88.2053 57.1098 87.8661 56.3515L87.2562 54.9857H79.475C74.9266 54.9857 71.7072 55.0311 71.7318 55.0879" fill="#17282F"/>
<path d="M54.2443 62.5866L54.2167 65.614C54.2106 66.2453 54.049 66.867 53.7444 67.4317C53.2201 68.4258 52.4397 69.1486 51.3665 69.6343C50.6955 69.9393 50.6097 69.9507 48.7196 69.9507H47.6791C47.0802 69.9508 46.4892 69.8231 45.9521 69.5775C44.9148 69.1032 43.9152 68.1318 43.5242 67.2173C43.3402 66.7535 43.2326 66.2337 43.1958 65.4564L43.147 64.3603H40V65.343C40.0123 67.5567 40.7568 69.2625 42.3666 70.7425C44.1344 72.3799 45.7685 72.9451 48.7196 72.9451C51.6225 72.9451 53.2934 72.3799 55.0124 70.7985C56.0243 69.8726 56.6465 68.9467 57.0862 67.6927C57.3545 66.9361 57.3667 66.71 57.4146 62.7448L57.4636 58.5998H54.281L54.2443 62.5866Z" fill="#17282F"/>
<path d="M61.8295 65.7719V72.9451H63.4145H64.9999V65.7719V58.5998H63.4145H61.8295V65.7719Z" fill="#17282F"/>
<path d="M82.317 65.7719V72.9451H83.9023H85.4873V65.7719V58.5998H83.9023H82.317V65.7719Z" fill="#17282F"/>
<path d="M102.561 65.7719V72.9451H104.146H105.731V65.7719V58.5998H104.146H102.561V65.7719Z" fill="#17282F"/>
<path d="M110.024 58.8026C110.049 58.9162 111.463 62.1464 113.17 65.975L116.28 72.9448H117.963C119.536 72.9448 119.646 72.9335 119.61 72.7418C119.585 72.6282 118.17 69.398 116.463 65.5685L113.354 58.5995H111.67C110.11 58.5995 109.987 58.6109 110.024 58.8026Z" fill="#17282F"/>
<path d="M63.1097 78.2083C62.1591 78.6599 61.7072 79.3941 61.7072 80.5128C61.7072 81.6773 62.195 82.4325 63.1956 82.8285C64.0974 83.1667 65.2807 82.9182 65.8416 82.2635L65.9976 82.0707L65.959 81.8611L65.7683 81.7438C65.4386 81.5407 65.4264 81.5407 65.1225 81.8119C64.4267 82.4212 63.6586 82.4101 62.976 81.7438C62.6844 81.4501 62.6231 81.3036 62.5866 80.6477C62.5375 79.7332 62.7936 79.2137 63.4525 78.897C63.9892 78.6372 64.4767 78.7167 65.0133 79.1228C65.3427 79.3827 65.4162 79.3941 65.6846 79.2702C66.0495 79.0785 66.0495 78.9198 65.6956 78.6144C65.0498 78.0507 63.83 77.8578 63.1106 78.2083" fill="#17282F"/>
<path d="M68.7811 78.2086C67.8415 78.5809 67.403 79.2924 67.3908 80.4563C67.3785 81.8679 68.1221 82.7938 69.4146 82.9526C70.9395 83.1443 72.0737 82.1051 72.0737 80.5131C72.0737 78.6602 70.463 77.5309 68.7811 78.2086ZM70.3173 78.886C70.915 79.1572 71.2201 79.677 71.2201 80.4563C71.2201 81.564 70.6835 82.2297 69.7562 82.2525C68.7933 82.2752 68.073 81.3368 68.2199 80.2419C68.3046 79.5634 68.5729 79.1799 69.1585 78.9087C69.6706 78.6602 69.793 78.6602 70.3173 78.886Z" fill="#17282F"/>
<path d="M80.9147 78.1745C80.122 78.5136 79.805 79.2705 80.1711 79.9252C80.4026 80.3541 80.8902 80.6026 81.8775 80.8173C82.2805 80.8966 82.7055 81.0553 82.8281 81.1564C83.1348 81.4049 83.1087 81.8338 82.7791 82.0267C82.1336 82.3874 81.4501 82.3309 80.9012 81.8563C80.6084 81.5964 79.9985 81.6643 79.9985 81.9469C79.9985 82.1741 80.5474 82.647 81.0358 82.8387C82.6334 83.449 84.4377 82.2181 83.7431 80.9755C83.5227 80.558 83.0719 80.3095 82.1937 80.1056C80.8889 79.8116 80.5474 79.4506 81.1082 78.9763C81.4624 78.6826 82.206 78.7053 82.6699 79.0217C83.0228 79.2589 83.0596 79.2703 83.3525 79.0888C83.5227 78.9877 83.6591 78.8615 83.6591 78.8047C83.6591 78.7479 83.4396 78.5676 83.159 78.3986C82.5614 78.0376 81.5004 77.9356 80.915 78.1714" fill="#17282F"/>
<path d="M73.9025 80.5126V82.8853H74.3291H74.7442L74.7807 81.1675L74.8175 79.462L75.9631 81.1675L77.1097 82.8853H77.6463H78.1706V80.5126V78.1401H77.7441H77.3166V79.9136V81.6983L76.1345 79.9136L74.939 78.1401H74.4269H73.9025V80.5126Z" fill="#17282F"/>
<path d="M85.4879 79.8576C85.4879 81.439 85.5124 81.631 85.7685 82.0372C86.0733 82.5456 86.8905 82.998 87.5004 82.998C88.0615 82.9867 88.8297 82.6135 89.1581 82.1959C89.4386 81.8341 89.4509 81.6989 89.4877 79.9709L89.5242 78.1407H88.6582V81.0414C88.6584 81.3553 88.5326 81.6581 88.3053 81.8909C88.037 82.1732 87.8656 82.2516 87.5004 82.2516C87.1352 82.2516 86.9638 82.1732 86.6958 81.8909C86.4676 81.6585 86.3413 81.3555 86.3416 81.0414V78.1407H85.4879V79.8576Z" fill="#17282F"/>
<path d="M91.4633 80.5126V82.8853H92.9873H94.5122V82.5459V82.2067H93.3534H92.1946V80.1734V78.1401H91.8294H91.4633V80.5126Z" fill="#17282F"/>
<path d="M94.756 78.4795V78.8187H95.5487H96.3411V80.852V82.8844H96.7685H97.195V80.852V78.8187H97.9877H98.7801V78.4795V78.1401H96.7685H94.756V78.4795Z" fill="#17282F"/>
<path d="M40 81.0775C40 81.1567 42.9879 81.1911 48.7196 81.1911C54.4512 81.1911 57.4391 81.157 57.4391 81.0775C57.4391 80.9979 54.4515 80.9639 48.7196 80.9639C42.9876 80.9639 40 80.9979 40 81.0775Z" fill="#17282F"/>
<path d="M102.561 81.0775C102.561 81.1567 105.548 81.1911 111.28 81.1911C117.012 81.1911 120 81.157 120 81.0775C120 80.9979 117.012 80.9639 111.28 80.9639C105.549 80.9639 102.561 80.9979 102.561 81.0775Z" fill="#17282F"/>
</mask>
<g mask="url(#mask0_1_11)">
<rect x="40" y="43" width="80" height="40.0003" fill="#17282F"/>
</g>
<rect x="40" y="265" width="575" height="198" rx="5" fill="#F3F3F3"/>
<rect x="40" y="483" width="575" height="197" rx="5" fill="#F3F3F3"/>
<line x1="1229.5" y1="227.058" x2="1229.5" y2="119.942" stroke="white"/>
<rect x="40" y="105" width="277.5" height="140" rx="5" fill="#F3F3F3"/>
<rect x="337.5" y="105" width="277.5" height="140" rx="5" fill="#F3F3F3"/>
<rect x="635" y="105" width="277.5" height="140" rx="5" fill="#F3F3F3"/>
<rect x="635" y="265" width="278" height="415" rx="5" fill="#F3F3F3"/>
<rect x="933" y="265" width="277" height="415" rx="5" fill="#F3F3F3"/>
<rect x="932.5" y="105" width="277.5" height="140" rx="5" fill="#F3F3F3"/>
<defs>
<linearGradient id="paint0_linear_1_11" x1="0" y1="0" x2="1261.5" y2="696" gradientUnits="userSpaceOnUse">
<stop stop-color="#17282F"/>
<stop offset="1" stop-color="#497F95"/>
</linearGradient>
</defs>
</svg>
